<?xml version="1.0" encoding="iso-8859-1"?>
<!-- Generator: Adobe Illustrator 19.0.0, SVG Export Plug-In . SVG Version: 6.00 Build 0)  -->
<svg version="1.1" id="Capa_1" xmlns="http://www.w3.org/2000/svg" xmlns:xlink="http://www.w3.org/1999/xlink" x="0px" y="0px"
	 viewBox="0 0 512 512" style="enable-background:new 0 0 512 512;" xml:space="preserve">
<ellipse style="fill:#577C84;" cx="256" cy="275.138" rx="256" ry="235.53"/>
<path style="fill:#FFD522;" d="M455.04,1.321c10.485,11.618,16.922,26.958,16.922,43.841c0,36.196-29.342,65.538-65.538,65.538
	c-16.882,0-32.223-6.438-43.841-16.922c8.446,32.739,38.087,56.959,73.463,56.959c41.948,0,75.954-34.005,75.954-75.955
	C512,39.407,487.779,9.766,455.04,1.321z"/>
<rect x="419.621" y="397.36" style="fill:#054A93;" width="92.379" height="113.319"/>
<polyline style="fill:#002E70;" points="289.534,510.67 337.62,510.67 452.528,510.67 452.528,318.471 337.62,318.471 "/>
<g>
	<path style="fill:#05264C;" d="M424.318,364.419H337.62c-4.328,0-7.837-3.509-7.837-7.837s3.509-7.837,7.837-7.837h86.698
		c4.328,0,7.837,3.509,7.837,7.837S428.646,364.419,424.318,364.419z"/>
	<path style="fill:#05264C;" d="M424.318,441.737H337.62c-4.328,0-7.837-3.509-7.837-7.837s3.509-7.837,7.837-7.837h86.698
		c4.328,0,7.837,3.509,7.837,7.837S428.646,441.737,424.318,441.737z"/>
	<path style="fill:#05264C;" d="M424.318,480.397H337.62c-4.328,0-7.837-3.509-7.837-7.837c0-4.328,3.509-7.837,7.837-7.837h86.698
		c4.328,0,7.837,3.509,7.837,7.837C432.155,476.888,428.646,480.397,424.318,480.397z"/>
	<path style="fill:#05264C;" d="M424.318,403.078H337.62c-4.328,0-7.837-3.509-7.837-7.837s3.509-7.837,7.837-7.837h86.698
		c4.328,0,7.837,3.509,7.837,7.837S428.646,403.078,424.318,403.078z"/>
</g>
<polyline style="fill:#1462A8;" points="174.626,234.357 174.626,135.626 337.62,135.626 337.62,318.471 337.62,510.67 
	289.534,510.67 228.407,510.67 174.626,510.67 "/>
<rect y="325.899" style="fill:#002C60;" width="92.056" height="184.78"/>
<polygon style="fill:#2C84C6;" points="174.626,135.626 337.62,356.582 337.62,135.626 "/>
<polygon style="fill:#054A93;" points="0,325.896 65.414,411.46 65.414,325.896 "/>
<rect x="65.411" y="234.356" style="fill:#002E70;" width="162.994" height="276.313"/>
<polygon style="fill:#054A93;" points="65.414,234.358 228.409,378.547 228.409,234.358 "/>
<g>
	<rect x="65.411" y="285.535" style="fill:#05264C;" width="162.994" height="15.673"/>
	<rect x="65.411" y="338.292" style="fill:#05264C;" width="162.994" height="15.673"/>
	<rect x="65.411" y="391.059" style="fill:#05264C;" width="162.994" height="15.673"/>
	<rect x="65.411" y="443.827" style="fill:#05264C;" width="162.994" height="15.673"/>
</g>
<path style="fill:#FFD522;" d="M209.889,201.448c-4.328,0-7.837-3.509-7.837-7.837v-23.509c0-4.328,3.509-7.837,7.837-7.837
	c4.328,0,7.837,3.509,7.837,7.837v23.509C217.725,197.939,214.217,201.448,209.889,201.448z"/>
<g>
	<path style="fill:#05264C;" d="M302.358,201.448c-4.328,0-7.837-3.509-7.837-7.837v-23.509c0-4.328,3.509-7.837,7.837-7.837
		c4.328,0,7.837,3.509,7.837,7.837v23.509C310.195,197.939,306.686,201.448,302.358,201.448z"/>
	<path style="fill:#05264C;" d="M256.123,201.448c-4.328,0-7.837-3.509-7.837-7.837v-23.509c0-4.328,3.509-7.837,7.837-7.837
		s7.837,3.509,7.837,7.837v23.509C263.96,197.939,260.451,201.448,256.123,201.448z"/>
</g>
<path style="fill:#FFD522;" d="M302.358,270.016c-4.328,0-7.837-3.509-7.837-7.837V238.67c0-4.328,3.509-7.837,7.837-7.837
	c4.328,0,7.837,3.509,7.837,7.837v23.509C310.195,266.507,306.686,270.016,302.358,270.016z"/>
<g>
	<path style="fill:#05264C;" d="M256.123,270.016c-4.328,0-7.837-3.509-7.837-7.837V238.67c0-4.328,3.509-7.837,7.837-7.837
		s7.837,3.509,7.837,7.837v23.509C263.96,266.507,260.451,270.016,256.123,270.016z"/>
	<path style="fill:#05264C;" d="M302.358,475.722c-4.328,0-7.837-3.509-7.837-7.837v-23.509c0-4.328,3.509-7.837,7.837-7.837
		c4.328,0,7.837,3.509,7.837,7.837v23.509C310.195,472.213,306.686,475.722,302.358,475.722z"/>
	<path style="fill:#05264C;" d="M256.123,475.722c-4.328,0-7.837-3.509-7.837-7.837v-23.509c0-4.328,3.509-7.837,7.837-7.837
		s7.837,3.509,7.837,7.837v23.509C263.96,472.213,260.451,475.722,256.123,475.722z"/>
	<path style="fill:#05264C;" d="M302.358,407.154c-4.328,0-7.837-3.509-7.837-7.837v-23.509c0-4.328,3.509-7.837,7.837-7.837
		c4.328,0,7.837,3.509,7.837,7.837v23.509C310.195,403.645,306.686,407.154,302.358,407.154z"/>
</g>
<path style="fill:#FFD522;" d="M256.123,407.154c-4.328,0-7.837-3.509-7.837-7.837v-23.509c0-4.328,3.509-7.837,7.837-7.837
	s7.837,3.509,7.837,7.837v23.509C263.96,403.645,260.451,407.154,256.123,407.154z"/>
<g>
	<path style="fill:#05264C;" d="M302.358,338.585c-4.328,0-7.837-3.509-7.837-7.837v-23.509c0-4.328,3.509-7.837,7.837-7.837
		c4.328,0,7.837,3.509,7.837,7.837v23.509C310.195,335.077,306.686,338.585,302.358,338.585z"/>
	<path style="fill:#05264C;" d="M256.123,338.585c-4.328,0-7.837-3.509-7.837-7.837v-23.509c0-4.328,3.509-7.837,7.837-7.837
		s7.837,3.509,7.837,7.837v23.509C263.96,335.077,260.451,338.585,256.123,338.585z"/>
	<path style="fill:#05264C;" d="M32.707,382.237c-4.328,0-7.837-3.509-7.837-7.837v-20.374c0-4.328,3.509-7.837,7.837-7.837
		s7.837,3.509,7.837,7.837V374.4C40.544,378.728,37.035,382.237,32.707,382.237z"/>
	<path style="fill:#05264C;" d="M32.707,436.308c-4.328,0-7.837-3.509-7.837-7.837v-20.374c0-4.328,3.509-7.837,7.837-7.837
		s7.837,3.509,7.837,7.837v20.374C40.544,432.799,37.035,436.308,32.707,436.308z"/>
</g>
<path style="fill:#FFD522;" d="M32.707,490.379c-4.328,0-7.837-3.509-7.837-7.837v-20.374c0-4.328,3.509-7.837,7.837-7.837
	s7.837,3.509,7.837,7.837v20.374C40.544,486.87,37.035,490.379,32.707,490.379z"/>
<path style="fill:#05264C;" d="M482.264,461.849c-4.328,0-7.837-3.509-7.837-7.837v-22.179c0-4.328,3.509-7.837,7.837-7.837
	c4.328,0,7.837,3.509,7.837,7.837v22.179C490.101,458.34,486.592,461.849,482.264,461.849z"/>
<g>
	<path style="fill:#FFD522;" d="M102.404,136.357c-2.597,0-4.702-2.105-4.702-4.702V60.602c0-2.597,2.105-4.702,4.702-4.702
		s4.702,2.105,4.702,4.702v71.053C107.106,134.252,105.001,136.357,102.404,136.357z"/>
	<path style="fill:#FFD522;" d="M137.931,100.831H66.878c-2.597,0-4.702-2.105-4.702-4.702s2.105-4.702,4.702-4.702h71.053
		c2.597,0,4.702,2.105,4.702,4.702S140.527,100.831,137.931,100.831z"/>
	<path style="fill:#FFD522;" d="M444.085,269.612c-2.597,0-4.702-2.105-4.702-4.702v-71.053c0-2.597,2.105-4.702,4.702-4.702
		s4.702,2.105,4.702,4.702v71.053C448.787,267.506,446.682,269.612,444.085,269.612z"/>
	<path style="fill:#FFD522;" d="M479.611,234.085h-71.053c-2.597,0-4.702-2.105-4.702-4.702s2.105-4.702,4.702-4.702h71.053
		c2.597,0,4.702,2.105,4.702,4.702S482.209,234.085,479.611,234.085z"/>
	<path style="fill:#FFD522;" d="M268.166,68.718c-6.6,0-10.268-8.083-5.855-13.036c2.289-2.568,6.095-3.345,9.203-1.875
		c3.039,1.437,4.822,4.706,4.426,8.037C275.481,65.723,272.064,68.718,268.166,68.718z"/>
	<path style="fill:#FFD522;" d="M203.409,80.084c-6.909,0-10.42-8.752-5.398-13.516c2.469-2.343,6.258-2.812,9.231-1.159
		c2.93,1.629,4.509,5.077,3.858,8.364C210.383,77.39,207.097,80.084,203.409,80.084z"/>
	<path style="fill:#FFD522;" d="M385.717,59.324c-7.196,0-10.54-9.35-4.976-13.898c2.648-2.164,6.476-2.344,9.323-0.459
		c2.66,1.762,4.005,5.122,3.29,8.233C392.545,56.718,389.352,59.324,385.717,59.324z"/>
	<path style="fill:#FFD522;" d="M370.043,189.403c-6.892,0-10.439-8.724-5.437-13.49c2.574-2.452,6.613-2.881,9.622-0.97
		c2.681,1.703,4.106,4.947,3.511,8.072C377.044,186.667,373.774,189.403,370.043,189.403z"/>
	<path style="fill:#FFD522;" d="M111.441,167.858c-7.173,0-10.55-9.347-4.97-13.894c2.697-2.197,6.627-2.357,9.475-0.35
		c2.74,1.932,3.951,5.465,2.991,8.678C117.962,165.555,114.844,167.858,111.441,167.858z"/>
	<path style="fill:#FFD522;" d="M28.111,205.077c-3.415,0-6.507-2.307-7.495-5.567c-0.977-3.225,0.272-6.772,3.021-8.701
		c5.87-4.118,13.94,1.604,12.024,8.51C34.73,202.674,31.599,205.077,28.111,205.077z"/>
	<circle style="fill:#FFD522;" cx="386.445" cy="395.239" r="7.837"/>
	<circle style="fill:#FFD522;" cx="424.323" cy="472.917" r="7.837"/>
</g>
<g>
</g>
<g>
</g>
<g>
</g>
<g>
</g>
<g>
</g>
<g>
</g>
<g>
</g>
<g>
</g>
<g>
</g>
<g>
</g>
<g>
</g>
<g>
</g>
<g>
</g>
<g>
</g>
<g>
</g>
</svg>
