<svg version="1.1" xmlns="http://www.w3.org/2000/svg" xmlns:xlink="http://www.w3.org/1999/xlink" x="0px" y="0px"
	 width='100%' height='100%' viewBox='0 0 1600 800' xml:space="preserve">
<pattern  x="-1586.169" width="490.25" height="490.25" patternUnits="userSpaceOnUse" id="Unnamed_Pattern_8" viewBox="0 -490.25 490.25 490.25" overflow="visible">
	<g>
		<polygon fill="none" points="0,-490.25 490.25,-490.25 490.25,0 0,0 		"/>
		<path fill="#FFFFFF" d="M180.657-490.25c0.304,0.519,0.681,1.01,0.886,1.565c0.152,0.41,0.223,1.246,0.085,1.303
			c-0.673,0.279-1.429,0.475-2.151,0.46c-0.311-0.007-0.827-0.566-0.871-0.922c-0.098-0.786,0.046-1.602,0.091-2.405
			C179.35-490.25,180.004-490.25,180.657-490.25z"/>
		<path fill="#FFFFFF" d="M490.25-102.707c-0.335-0.131-0.813-0.167-0.974-0.412c-0.318-0.485-0.461-1.085-0.677-1.638
			c0.55-0.134,1.101-0.268,1.65-0.401C490.25-104.342,490.25-103.524,490.25-102.707z"/>
		<path fill="#FFFFFF" d="M0-105.403c0.848-0.12,1.334,0.227,1.283,1.103c-0.043,0.766-0.345,1.33-1.283,1.104
			C0-103.933,0-104.668,0-105.403z"/>
		<path fill="#FFFFFF" d="M122.806-163.377c0.861,0.5,1.727,0.993,2.577,1.511c0.118,0.072,0.214,0.268,0.224,0.413
			c0.068,0.964,0.178,1.932,0.141,2.893c-0.038,0.976-1.816,2.096-2.861,1.89c-1.742-0.342-2.335-1.189-2.084-2.917
			c0.036-0.25-0.088-0.527-0.154-0.788c-0.144-0.568-0.597-1.338-0.381-1.655c0.347-0.51,1.125-0.736,1.742-1.042
			c0.163-0.081,0.4-0.013,0.603-0.013C122.677-163.183,122.742-163.279,122.806-163.377z"/>
		<path fill="#FFFFFF" d="M167.349-262.934c-0.956-0.623-1.721-1.074-2.429-1.602c-0.348-0.258-0.54-0.73-0.893-0.979
			c-0.873-0.615-0.873-1.548-0.346-2.115c0.387-0.416,1.371-0.461,2.048-0.367c0.626,0.088,1.36,0.443,1.754,0.922
			c0.669,0.81,1.22,1.773,1.553,2.764C169.109-264.094,168.063-263.5,167.349-262.934z"/>
		<path fill="#FFFFFF" d="M410.513-22.612c1.121-0.018,2.189,0.022,2.251,1.564c0.007,0.172,0.281,0.372,0.474,0.492
			c0.997,0.623,1.104,1.115,0.436,2.149c-0.414,0.639-1.569,0.878-2.161,0.328c-0.915-0.851-1.772-1.773-2.577-2.729
			c-0.272-0.323-0.544-0.974-0.396-1.239c0.179-0.319,0.797-0.416,1.242-0.553C410.006-22.669,410.268-22.612,410.513-22.612z"/>
		<path fill="#FFFFFF" d="M27.67-87.161c0.292-0.686,0.409-1.738,0.914-1.979c1.074-0.514,1.621,0.482,2.099,1.323
			c0.135,0.239,0.392,0.407,0.583,0.616c0.494,0.542,0.549,1.066-0.07,1.563c-0.185,0.149-0.413,0.284-0.519,0.481
			c-0.264,0.488-0.196,1.402-1.123,1.037c-0.848-0.334-1.797-0.705-1.631-1.955c0.042-0.319,0.006-0.649,0.006-0.976
			C27.842-87.088,27.756-87.125,27.67-87.161z"/>
		<path fill="#FFFFFF" d="M104.574-192.588c1.414-0.172,2.057,0.931,2.737,1.685c0.734,0.816,0.03,2.153-1.077,2.211
			c-1.149,0.06-2.501,0.36-2.563-1.495c-0.002-0.075-0.042-0.171-0.098-0.219c-0.496-0.436-1.15-0.938-0.598-1.599
			C103.29-192.382,104.027-192.405,104.574-192.588z"/>
		<path fill="#FFFFFF" d="M423.967-244.215c1.028-0.854,2.244-0.602,2.81,0.684c0.504,1.146-0.786,1.342-1.208,1.991
			c-0.112,0.174-0.918,0.158-1.143-0.052c-0.697-0.651-1.293-1.421-1.867-2.189c-0.113-0.15,0.042-0.501,0.074-0.76
			C423.03-244.443,423.428-244.347,423.967-244.215z"/>
		<path fill="#FFFFFF" d="M276.11-331.125c-0.345,0.37-0.82,1.166-1.521,1.549c-0.677,0.369-0.959-0.373-0.998-0.968
			c-0.051-0.759,0.079-1.534-0.807-1.979c-0.155-0.078-0.224-0.662-0.099-0.875c0.15-0.259,0.535-0.486,0.845-0.525
			C274.495-334.043,276.075-332.563,276.11-331.125z"/>
		<path fill="#FFFFFF" d="M40.781-440.727c1.05,0.757,1.999,1.38,2.854,2.112c0.152,0.13-0.025,1.015-0.158,1.043
			c-0.597,0.128-1.258,0.185-1.848,0.052c-0.623-0.141-1.242-0.456-1.766-0.831c-0.33-0.235-0.759-0.923-0.662-1.057
			C39.54-439.871,40.088-440.181,40.781-440.727z"/>
		<path fill="#FFFFFF" d="M80.258-430.222c0.479,0.422,1.311,0.804,1.363,1.273c0.111,0.993-0.943,1.761-1.913,1.732
			c-1.048-0.03-1.298-0.671-1.266-1.55C78.482-429.81,79.163-430.023,80.258-430.222z"/>
		<path fill="#FFFFFF" d="M211.65-380.598c0.994-0.689,2.104-1.123,3.329-0.756c0.306,0.092,0.573,0.813,0.57,1.244
			c-0.001,0.254-0.613,0.76-0.871,0.713c-1.018-0.184-2.007-0.542-3.006-0.836C211.665-380.353,211.658-380.476,211.65-380.598z"/>
		<path fill="#FFFFFF" d="M262.654-238.313c0.579,0.546,1.329,1.16,1.284,1.224c-0.456,0.658-1.041,1.227-1.59,1.819
			c-0.485-0.58-0.971-1.16-1.456-1.74C261.409-237.393,261.927-237.775,262.654-238.313z"/>
		<path fill="#FFFFFF" d="M115.78-108.964c0.603,0.625,1.187,0.958,1.296,1.406c0.177,0.731-0.752,1.758-1.382,1.722
			c-1.031-0.06-1.316-0.895-1.239-1.642C114.502-107.929,115.171-108.314,115.78-108.964z"/>
		<path fill="#FFFFFF" d="M6.304-485.897c0.179-0.39,0.313-1.103,0.744-1.464c0.248-0.209,1.069,0.015,1.461,0.289
			c0.569,0.397,1.306,0.941,0.808,1.789c-0.145,0.245-0.839,0.326-1.223,0.234C7.53-485.185,7.02-485.543,6.304-485.897z"/>
		<path fill="#FFFFFF" d="M253.243-241.965c0.325,0,0.713-0.111,0.962,0.027c0.335,0.186,0.778,0.567,0.775,0.862
			c-0.002,0.296-0.448,0.752-0.781,0.844c-0.531,0.146-1.159,0.16-1.691,0.022c-0.417-0.109-0.994-0.477-1.076-0.827
			c-0.169-0.727,0.434-0.945,1.078-0.95c0.244-0.001,0.489,0,0.733,0C253.243-241.979,253.243-241.973,253.243-241.965z"/>
		<path fill="#FFFFFF" d="M246.364-348.585c-0.35,0.389-0.638,1.006-1.061,1.117c-0.825,0.218-1.079-0.485-1.173-1.175
			c-0.038-0.277-0.121-0.617-0.005-0.832c0.263-0.486,0.636-0.912,0.965-1.363c0.316,0.438,0.659,0.859,0.933,1.321
			c0.112,0.191,0.074,0.472,0.104,0.713C246.206-348.73,246.285-348.658,246.364-348.585z"/>
		<path fill="#FFFFFF" d="M49.401-431.242c0.036,0.713-2.193,2.207-2.75,1.919c-0.201-0.104-0.511-0.432-0.486-0.469
			c0.475-0.718,0.903-1.513,1.544-2.05c0.26-0.217,1.009,0.127,1.523,0.262C49.331-431.555,49.371-431.309,49.401-431.242z"/>
		<path fill="#FFFFFF" d="M49.857-426.449c-0.143,1.076-0.214,1.818-0.365,2.546c-0.031,0.148-0.381,0.346-0.551,0.317
			c-0.162-0.026-0.32-0.299-0.411-0.496c-0.212-0.463-0.423-0.933-0.56-1.42c-0.134-0.476-0.314-1.017-0.198-1.455
			c0.058-0.218,0.816-0.471,1.115-0.352C49.338-427.128,49.663-426.635,49.857-426.449z"/>
		<path fill="#FFFFFF" d="M164.088-260.299c-0.166,0.142-0.744,0.74-0.824,0.68c-0.667-0.505-1.242-1.131-1.846-1.72
			c0.405-0.291,0.791-0.79,1.219-0.829C163.625-262.259,164.117-261.652,164.088-260.299z"/>
		<path fill="#FFFFFF" d="M136.045-395.851c-1.228-0.041-1.991-0.792-1.88-1.681c0.042-0.336,0.457-0.625,0.702-0.936
			c0.643,0.585,1.303,1.154,1.886,1.793C136.788-396.635,136.202-396.029,136.045-395.851z"/>
		<path fill="#FFFFFF" d="M285.331-195.644c0.747,0.662,1.444,1.218,2.041,1.865c0.107,0.117-0.114,0.795-0.327,0.889
			c-0.292,0.129-0.766,0.035-1.08-0.124c-0.401-0.204-0.746-0.544-1.068-0.872c-0.23-0.235-0.585-0.609-0.523-0.81
			C284.469-195.005,284.873-195.218,285.331-195.644z"/>
		<path fill="#FFFFFF" d="M18.756-483.176c-0.089,2.184-0.916,2.897-2.259,2.279c-0.645-0.297-0.947-0.881-0.314-1.297
			C16.9-482.664,17.815-482.834,18.756-483.176z"/>
		<path fill="#FFFFFF" d="M408.542-14.519c-1.066-0.225-1.647-0.606-1.508-1.46c0.071-0.438,0.564-0.808,0.865-1.209
			c0.576,0.508,1.152,1.015,1.729,1.523C409.266-15.283,408.903-14.901,408.542-14.519z"/>
		<path fill="#FFFFFF" d="M397.072-210.63c0.172,0.177,0.645,0.459,0.787,0.859c0.192,0.538-1.045,1.581-1.887,1.565
			c-0.271-0.006-0.722-0.385-0.768-0.649C395.081-209.564,396.052-210.589,397.072-210.63z"/>
		<path fill="#FFFFFF" d="M115.831-226.777c0.473,0.56,1.009,1.079,1.389,1.695c0.176,0.285,0.144,0.799,0.009,1.129
			c-0.057,0.142-0.757,0.231-0.919,0.08c-0.459-0.425-0.899-0.942-1.132-1.512c-0.146-0.356,0.093-0.871,0.159-1.315
			C115.5-226.726,115.665-226.752,115.831-226.777z"/>
		<path fill="#FFFFFF" d="M459.269-133.65c-0.728-0.6-1.238-1.021-1.749-1.442c0.36-0.315,0.722-0.891,1.082-0.891
			c0.654,0.001,1.62-0.018,1.622,1.009C460.224-134.614,459.724-134.254,459.269-133.65z"/>
		<path fill="#FFFFFF" d="M117.318-285.939c0.567,0.629,1.165,0.988,1.207,1.403c0.089,0.881-0.683,0.93-1.358,0.928
			c-0.676-0.002-1.334-0.213-1.167-0.988C116.092-285.021,116.698-285.336,117.318-285.939z"/>
		<path fill="#FFFFFF" d="M203.846-377.535c0.709,0.83,1.205,1.35,1.582,1.945c0.039,0.063-0.863,0.88-0.934,0.826
			c-0.526-0.398-1.018-0.888-1.369-1.445C203.029-376.361,203.453-376.84,203.846-377.535z"/>
		<path fill="#FFFFFF" d="M385.129-331.648c-0.707,0.618-1.103,0.965-1.501,1.311c-0.313-0.435-0.845-0.857-0.871-1.31
			c-0.023-0.381,0.542-0.797,0.847-1.197C384.009-332.525,384.414-332.208,385.129-331.648z"/>
		<path fill="#FFFFFF" d="M383.805-301.449c-0.46-0.57-0.746-0.926-1.032-1.281c0.385-0.309,0.782-0.875,1.152-0.857
			c0.408,0.019,0.792,0.573,1.186,0.895C384.743-302.342,384.375-301.992,383.805-301.449z"/>
		<path fill="#FFFFFF" d="M381.859-151.628c-0.579,0.538-0.939,0.871-1.298,1.205c-0.287-0.411-0.8-0.822-0.799-1.232
			c0.001-0.4,0.526-0.801,0.821-1.2C380.938-152.516,381.29-152.176,381.859-151.628z"/>
		<path fill="#FFFFFF" d="M287.8-309.379c-0.549,0.543-0.878,0.868-1.207,1.193c-0.289-0.406-0.778-0.799-0.807-1.224
			c-0.024-0.355,0.489-0.745,0.765-1.12C286.906-310.202,287.262-309.875,287.8-309.379z"/>
		<path fill="#FFFFFF" d="M362.642-352.016c-0.573,0.494-0.929,0.801-1.285,1.108c-0.289-0.46-0.697-0.895-0.809-1.396
			c-0.045-0.198,0.621-0.811,0.869-0.761C361.803-352.986,362.107-352.504,362.642-352.016z"/>
		<path fill="#FFFFFF" d="M73.533-99.747c-0.55,0.45-0.946,1.006-1.239,0.955c-0.355-0.062-0.901-0.669-0.861-0.974
			c0.056-0.431,0.574-0.801,0.895-1.196C72.661-100.627,72.994-100.291,73.533-99.747z"/>
		<path fill="#FFFFFF" d="M361.338-469.227c-0.579-0.58-0.933-0.935-1.286-1.289c0.36-0.304,0.747-0.872,1.076-0.841
			c0.398,0.038,0.848,0.531,1.067,0.939C362.276-470.268,361.765-469.799,361.338-469.227z"/>
		<path fill="#FFFFFF" d="M123.262-190.374c-0.48-0.516-0.794-0.853-1.108-1.189c0.383-0.273,0.769-0.764,1.147-0.759
			c0.383,0.005,0.759,0.502,1.138,0.783C124.108-191.211,123.777-190.883,123.262-190.374z"/>
		<path fill="#FFFFFF" d="M222.621-414.696c-0.482-0.564-0.785-0.92-1.088-1.275c0.413-0.288,0.813-0.768,1.244-0.799
			c0.3-0.021,0.9,0.577,0.897,0.894C223.672-415.541,223.112-415.211,222.621-414.696z"/>
		<path fill="#FFFFFF" d="M177.556-392.487c-0.41-0.565-0.661-0.911-0.911-1.257c0.418-0.277,0.836-0.766,1.256-0.769
			c0.348-0.002,0.699,0.567,1.049,0.884C178.555-393.306,178.159-392.982,177.556-392.487z"/>
		<path fill="#FFFFFF" d="M111.823-124.538c-0.457-0.624-0.928-0.988-0.924-1.348c0.003-0.287,0.611-0.82,0.902-0.789
			c0.401,0.043,0.756,0.515,1.13,0.803C112.636-125.517,112.34-125.16,111.823-124.538z"/>
		<path fill="#FFFFFF" d="M226.35-323.859c-0.482,0.58-0.965,1.161-1.447,1.741c-0.274-0.235-0.775-0.46-0.787-0.708
			c-0.063-1.346,1.213-0.925,1.836-1.391C226.084-324.098,226.217-323.978,226.35-323.859z"/>
		<path fill="#FFFFFF" d="M337.273-482.493c-0.403-0.546-0.908-0.95-0.842-1.208c0.086-0.331,0.654-0.783,0.968-0.75
			c0.401,0.043,0.757,0.52,1.132,0.809C338.182-483.324,337.833-483.005,337.273-482.493z"/>
		<path fill="#FFFFFF" d="M368.735-240.026c-0.605,0.514-0.938,1.008-1.31,1.04c-0.267,0.023-0.843-0.594-0.817-0.887
			c0.031-0.374,0.472-0.871,0.846-1C367.688-240.953,368.121-240.454,368.735-240.026z"/>
		<path fill="#FFFFFF" d="M224.033-473.25c-0.508,0.512-0.832,0.839-1.157,1.166c-0.262-0.348-0.744-0.706-0.728-1.04
			c0.02-0.386,0.479-0.75,0.746-1.124C223.211-473.97,223.528-473.691,224.033-473.25z"/>
		<path fill="#FFFFFF" d="M230.19-35.191c0.225,0.407,0.634,0.822,0.617,1.219c-0.015,0.33-0.53,0.638-0.825,0.956
			c-0.297-0.308-0.813-0.599-0.837-0.927c-0.03-0.397,0.355-0.825,0.56-1.24C229.867-35.187,230.028-35.188,230.19-35.191z"/>
		<path fill="#FFFFFF" d="M481.976-294.908c-0.596,0.513-0.916,0.992-1.297,1.047c-0.262,0.037-0.607-0.518-0.915-0.808
			c0.354-0.304,0.671-0.697,1.08-0.87C481.025-295.616,481.395-295.248,481.976-294.908z"/>
		<path fill="#FFFFFF" d="M210.063-109.647c-0.672,0.4-1.082,0.837-1.376,0.769c-0.33-0.075-0.783-0.626-0.76-0.937
			c0.025-0.321,0.547-0.819,0.875-0.838C209.111-110.672,209.449-110.166,210.063-109.647z"/>
		<path fill="#FFFFFF" d="M255.035-405.848c-0.222-0.352-0.646-0.725-0.611-1.049c0.039-0.348,0.51-0.648,0.791-0.971
			c0.301,0.308,0.792,0.585,0.847,0.932c0.051,0.32-0.364,0.716-0.573,1.078C255.337-405.853,255.186-405.851,255.035-405.848z"/>
		<path fill="#FFFFFF" d="M225.824-245.811c-0.447-0.666-0.908-1.057-0.854-1.352c0.062-0.336,0.584-0.811,0.906-0.811
			c0.301-0.002,0.802,0.518,0.843,0.854C226.758-246.817,226.291-246.453,225.824-245.811z"/>
		<path fill="#FFFFFF" d="M239.98-436.855c-0.378-0.691-0.758-1.076-0.721-1.415c0.031-0.291,0.539-0.53,0.836-0.792
			c0.281,0.318,0.73,0.611,0.789,0.967C240.928-437.832,240.464-437.484,239.98-436.855z"/>
		<path fill="#FFFFFF" d="M468.53-226.237c0.421,0.663,0.828,1.023,0.811,1.363c-0.014,0.291-0.583,0.829-0.781,0.777
			c-0.355-0.094-0.776-0.51-0.858-0.863C467.642-225.216,468.086-225.589,468.53-226.237z"/>
		<path fill="#FFFFFF" d="M193.822-249.078c-0.634,0.368-1.001,0.755-1.295,0.706c-0.316-0.053-0.564-0.515-0.843-0.798
			c0.318-0.281,0.608-0.726,0.965-0.788C192.904-250.003,193.248-249.533,193.822-249.078z"/>
		<path fill="#FFFFFF" d="M422.334-224.769c-0.702,0.351-1.099,0.715-1.439,0.667c-0.286-0.04-0.768-0.655-0.697-0.844
			c0.127-0.343,0.578-0.726,0.934-0.77C421.398-225.747,421.727-225.272,422.334-224.769z"/>
		<path fill="#FFFFFF" d="M197.625-361.176c-0.351,0.223-0.707,0.623-1.049,0.611c-0.285-0.009-0.77-0.498-0.774-0.78
			c-0.004-0.3,0.434-0.821,0.718-0.851c0.341-0.034,0.726,0.35,1.091,0.553C197.615-361.486,197.62-361.332,197.625-361.176z"/>
		<path fill="#FFFFFF" d="M146.33-155.113c-0.604,0.398-0.982,0.833-1.238,0.77c-0.355-0.087-0.618-0.549-0.92-0.85
			c0.325-0.276,0.622-0.715,0.983-0.774C145.415-156.011,145.759-155.551,146.33-155.113z"/>
		<path fill="#FFFFFF" d="M109.698-187.323c-0.35,0.23-0.703,0.643-1.047,0.635c-0.29-0.006-0.774-0.487-0.793-0.781
			c-0.018-0.283,0.427-0.807,0.715-0.843c0.341-0.042,0.733,0.326,1.102,0.517C109.683-187.639,109.69-187.48,109.698-187.323z"/>
		<path fill="#FFFFFF" d="M201.967-116.637c-0.682,0.375-1.092,0.778-1.344,0.696c-0.342-0.112-0.719-0.569-0.775-0.927
			c-0.032-0.204,0.554-0.719,0.843-0.704C201.03-117.556,201.35-117.117,201.967-116.637z"/>
		<path fill="#FFFFFF" d="M247.479-113.649c-0.692,0.394-1.072,0.78-1.416,0.751c-0.285-0.024-0.789-0.615-0.73-0.82
			c0.1-0.343,0.543-0.746,0.895-0.805C246.493-114.568,246.843-114.117,247.479-113.649z"/>
		<path fill="#FFFFFF" d="M372.832-110.747c-0.693,0.453-1.046,0.858-1.392,0.853c-0.275-0.004-0.542-0.512-0.813-0.796
			c0.313-0.287,0.59-0.712,0.955-0.813C371.817-111.569,372.185-111.16,372.832-110.747z"/>
		<path fill="#FFFFFF" d="M36.125-104.607c-0.596,0.405-0.961,0.843-1.23,0.79c-0.357-0.069-0.638-0.523-0.952-0.812
			c0.32-0.279,0.613-0.722,0.971-0.783C35.186-105.458,35.54-105.019,36.125-104.607z"/>
		<path fill="#FFFFFF" d="M289.611-33.606c-0.42-0.578-0.87-0.935-0.82-1.195c0.068-0.356,0.517-0.642,0.802-0.957
			c0.292,0.311,0.745,0.587,0.82,0.944C290.468-34.556,290.021-34.191,289.611-33.606z"/>
		<path fill="#FFFFFF" d="M318.214-345.087c-0.683,0.38-1.092,0.786-1.344,0.704c-0.345-0.111-0.571-0.592-0.849-0.914
			c0.303-0.26,0.613-0.733,0.906-0.723C317.268-346.006,317.591-345.566,318.214-345.087z"/>
		<path fill="#FFFFFF" d="M154.151-343.428c0.409,0.578,0.852,0.938,0.799,1.195c-0.075,0.355-0.521,0.634-0.81,0.945
			c-0.289-0.313-0.741-0.592-0.814-0.949C153.273-342.49,153.729-342.85,154.151-343.428z"/>
		<path fill="#FFFFFF" d="M47.958-319.599c-0.4-0.691-0.791-1.067-0.759-1.404c0.028-0.294,0.531-0.544,0.824-0.814
			c0.284,0.315,0.729,0.6,0.797,0.958C48.87-320.599,48.423-320.243,47.958-319.599z"/>
		<path fill="#FFFFFF" d="M114.643-222.146c0.434,0.603,0.856,0.938,0.868,1.286c0.009,0.265-0.505,0.547-0.787,0.821
			c-0.285-0.321-0.681-0.605-0.811-0.98C113.847-221.213,114.252-221.569,114.643-222.146z"/>
		<path fill="#FFFFFF" d="M412.847-353.043c-0.376-0.615-0.801-1.017-0.725-1.258c0.109-0.342,0.588-0.567,0.908-0.843
			c0.244,0.308,0.672,0.61,0.682,0.926C413.722-353.922,413.291-353.611,412.847-353.043z"/>
		<path fill="#FFFFFF" d="M423.049-147.77c-0.438-0.658-0.855-1.011-0.842-1.349c0.01-0.295,0.503-0.573,0.782-0.858
			c0.301,0.3,0.76,0.562,0.849,0.914C423.901-148.807,423.474-148.428,423.049-147.77z"/>
		<path fill="#FFFFFF" d="M140.004-86.165c-0.364,0.203-0.745,0.587-1.087,0.555c-0.289-0.027-0.743-0.538-0.738-0.83
			c0.004-0.287,0.481-0.78,0.771-0.796c0.343-0.018,0.707,0.38,1.063,0.597C140.009-86.481,140.007-86.323,140.004-86.165z"/>
		<path fill="#FFFFFF" d="M363.406-38.745c-0.344,0.238-0.688,0.657-1.032,0.656c-0.286,0-0.779-0.476-0.8-0.771
			c-0.021-0.286,0.411-0.819,0.697-0.858c0.34-0.047,0.735,0.318,1.107,0.505C363.388-39.057,363.397-38.9,363.406-38.745z"/>
		<path fill="#FFFFFF" d="M481.961-304.648c-0.685,0.377-1.099,0.782-1.347,0.699c-0.345-0.117-0.567-0.6-0.842-0.926
			c0.306-0.256,0.62-0.727,0.913-0.713C481.024-305.572,481.344-305.131,481.961-304.648z"/>
		<path fill="#FFFFFF" d="M484.62-208.487c-0.37-0.608-0.76-0.965-0.719-1.26c0.045-0.311,0.501-0.563,0.777-0.842
			c0.288,0.307,0.743,0.583,0.808,0.932C485.534-209.404,485.064-209.056,484.62-208.487z"/>
		<path fill="#FFFFFF" d="M284.544-183.224c-0.411-0.589-0.86-0.964-0.798-1.208c0.088-0.345,0.555-0.594,0.859-0.884
			c0.261,0.291,0.704,0.566,0.731,0.879C285.363-184.143,284.951-183.81,284.544-183.224z"/>
		<path fill="#FFFFFF" d="M246.137-432.895c0.588,0.692,1.058,1.247,1.528,1.801c-0.173,0.127-0.46,0.395-0.503,0.359
			c-0.541-0.436-1.058-0.904-1.539-1.405C245.59-432.176,245.881-432.524,246.137-432.895z"/>
		<path fill="#FFFFFF" d="M73.499-440.874c-0.313,0.138-0.67,0.439-0.931,0.371c-0.349-0.09-0.624-0.466-0.931-0.72
			c0.268-0.235,0.556-0.682,0.8-0.66c0.385,0.035,0.74,0.387,1.108,0.603C73.531-441.145,73.515-441.009,73.499-440.874z"/>
		<path fill="#FFFFFF" d="M345.292-253.451c0.366,0.642,0.755,1.018,0.697,1.305c-0.063,0.305-0.56,0.742-0.841,0.723
			c-0.278-0.019-0.712-0.522-0.729-0.833C344.403-252.549,344.84-252.867,345.292-253.451z"/>
		<path fill="#FFFFFF" d="M83.476-417.195c0.374,0.611,0.801,1.016,0.722,1.25c-0.114,0.34-0.592,0.558-0.915,0.828
			c-0.243-0.307-0.668-0.608-0.676-0.922C82.598-416.332,83.031-416.637,83.476-417.195z"/>
		<path fill="#FFFFFF" d="M476.855-279.386c-0.67,0.374-1.061,0.767-1.329,0.697c-0.303-0.079-0.642-0.561-0.68-0.899
			c-0.023-0.205,0.503-0.67,0.768-0.658C475.934-280.233,476.237-279.84,476.855-279.386z"/>
		<path fill="#FFFFFF" d="M214.052-387.592c-0.642,0.383-1.008,0.777-1.295,0.727c-0.309-0.057-0.763-0.542-0.747-0.818
			c0.016-0.284,0.502-0.728,0.815-0.757C213.115-388.467,213.445-388.036,214.052-387.592z"/>
		<path fill="#FFFFFF" d="M53.062-14.393c-0.406-0.654-0.81-1.019-0.759-1.3c0.055-0.303,0.511-0.675,0.842-0.733
			c0.199-0.035,0.689,0.468,0.695,0.735C53.847-15.369,53.476-15.041,53.062-14.393z"/>
		<path fill="#FFFFFF" d="M293.905-164.266c-0.65,0.411-1.012,0.817-1.292,0.768c-0.304-0.054-0.676-0.506-0.738-0.837
			c-0.036-0.196,0.462-0.688,0.73-0.695C292.925-165.04,293.255-164.673,293.905-164.266z"/>
		<path fill="#FFFFFF" d="M41.653-455.156c-0.128-0.375-0.409-0.782-0.342-1.119c0.063-0.322,0.486-0.789,0.758-0.794
			c0.297-0.005,0.602,0.448,0.904,0.7c-0.23,0.275-0.461,0.551-0.692,0.825C42.072-455.414,41.862-455.285,41.653-455.156z"/>
		<path fill="#FFFFFF" d="M412.003-370.411c-0.512,0.339-0.832,0.716-1.103,0.683c-0.286-0.033-0.524-0.459-0.783-0.715
			c0.284-0.268,0.537-0.686,0.863-0.754C411.201-371.244,411.525-370.799,412.003-370.411z"/>
		<path fill="#FFFFFF" d="M438.341-4.482c-0.572,0.337-0.91,0.692-1.223,0.671c-0.259-0.018-0.487-0.479-0.729-0.743
			c0.285-0.261,0.544-0.671,0.867-0.731C437.486-5.329,437.805-4.901,438.341-4.482z"/>
		<path fill="#FFFFFF" d="M365.484-261.327c-0.477,0.366-0.805,0.794-1.024,0.745c-0.319-0.072-0.559-0.488-0.834-0.759
			c0.262-0.244,0.508-0.657,0.789-0.683C364.685-262.049,364.991-261.67,365.484-261.327z"/>
		<path fill="#FFFFFF" d="M243.049-467.685c-0.235-0.488-0.483-0.854-0.427-0.909c0.475-0.466,1.003-0.878,1.532-1.282
			c0.017-0.013,0.362,0.336,0.344,0.361C244.086-468.958,243.645-468.422,243.049-467.685z"/>
		<path fill="#FFFFFF" d="M239.13-397.704c-0.5,0.329-0.857,0.73-1.07,0.663c-0.312-0.096-0.52-0.527-0.771-0.815
			c0.276-0.225,0.55-0.617,0.831-0.622C238.388-398.481,238.663-398.083,239.13-397.704z"/>
		<path fill="#FFFFFF" d="M43.038-423.131c0.32,0.549,0.68,0.891,0.631,1.157c-0.05,0.278-0.496,0.483-0.77,0.721
			c-0.235-0.275-0.644-0.544-0.654-0.827C42.236-422.352,42.642-422.637,43.038-423.131z"/>
		<path fill="#FFFFFF" d="M127.791-355.935c-0.41,0.35-0.684,0.582-0.957,0.814c-0.218-0.336-0.58-0.662-0.603-1.011
			c-0.016-0.226,0.462-0.486,0.718-0.731C127.19-356.597,127.432-356.33,127.791-355.935z"/>
		<path fill="#FFFFFF" d="M51.005-88.38c-0.336-0.52-0.705-0.84-0.667-1.1c0.04-0.274,0.47-0.491,0.73-0.732
			c0.241,0.26,0.652,0.507,0.674,0.785C51.764-89.166,51.374-88.872,51.005-88.38z"/>
		<path fill="#FFFFFF" d="M322.919-466.225c0.338,0.605,0.645,0.904,0.613,1.162c-0.04,0.326-0.357,0.617-0.555,0.924
			c-0.209-0.252-0.569-0.493-0.588-0.76C322.366-465.217,322.634-465.557,322.919-466.225z"/>
		<path fill="#FFFFFF" d="M409.947-276.387c-0.379-0.512-0.733-0.783-0.751-1.076c-0.015-0.235,0.414-0.721,0.583-0.695
			c0.307,0.049,0.736,0.357,0.796,0.628C410.63-277.279,410.27-276.935,409.947-276.387z"/>
		<path fill="#FFFFFF" d="M78.396-218.671c-0.371-0.541-0.748-0.85-0.721-1.116c0.028-0.276,0.449-0.513,0.699-0.767
			c0.231,0.231,0.638,0.455,0.648,0.695C79.033-219.558,78.718-219.244,78.396-218.671z"/>
		<path fill="#FFFFFF" d="M80.338-204.679c0.339,0.442,0.732,0.749,0.683,0.941c-0.076,0.297-0.456,0.516-0.707,0.767
			c-0.219-0.241-0.59-0.47-0.614-0.73C79.679-203.945,80.022-204.223,80.338-204.679z"/>
		<path fill="#FFFFFF" d="M238.084-442.253c0.316,0.501,0.648,0.8,0.641,1.09c-0.006,0.226-0.512,0.66-0.664,0.609
			c-0.293-0.099-0.627-0.446-0.688-0.743C237.331-441.501,237.723-441.793,238.084-442.253z"/>
		<path fill="#FFFFFF" d="M370.484-327.032c-0.465,0.362-0.761,0.756-0.965,0.713c-0.299-0.063-0.642-0.401-0.744-0.698
			c-0.05-0.147,0.392-0.654,0.617-0.658C369.685-327.682,369.984-327.349,370.484-327.032z"/>
		<path fill="#FFFFFF" d="M90.469-236.551c0.365-0.371,0.73-0.741,1.096-1.112c0.178,0.187,0.524,0.521,0.51,0.539
			c-0.341,0.387-0.722,0.74-1.095,1.099C90.809-236.2,90.639-236.376,90.469-236.551z"/>
		<path fill="#FFFFFF" d="M221.221-486.795c-0.341-0.314-0.682-0.63-1.023-0.945c0.233-0.217,0.466-0.433,0.699-0.649
			c0.291,0.371,0.582,0.741,0.873,1.112C221.586-487.116,221.404-486.955,221.221-486.795z"/>
		<path fill="#FFFFFF" d="M436.136-154.184c-0.404,0.341-0.684,0.745-0.887,0.709c-0.299-0.052-0.543-0.418-0.811-0.65
			c0.252-0.25,0.471-0.631,0.766-0.703C435.404-154.878,435.711-154.495,436.136-154.184z"/>
		<path fill="#FFFFFF" d="M235.1-215.726c-0.584,0.311-0.908,0.622-1.197,0.593c-0.227-0.022-0.582-0.478-0.566-0.72
			c0.014-0.236,0.436-0.635,0.662-0.624C234.29-216.464,234.566-216.113,235.1-215.726z"/>
		<path fill="#FFFFFF" d="M325.541-183.378c-0.61,0.241-0.938,0.493-1.211,0.443c-0.257-0.047-0.456-0.411-0.682-0.635
			c0.295-0.152,0.585-0.408,0.887-0.424C324.769-184.005,325.018-183.715,325.541-183.378z"/>
		<path fill="#FFFFFF" d="M160.244-305.761c0.316,0.459,0.659,0.739,0.636,0.983c-0.024,0.26-0.398,0.485-0.618,0.727
			c-0.25-0.253-0.629-0.474-0.703-0.77C159.511-305.015,159.904-305.318,160.244-305.761z"/>
		<path fill="#FFFFFF" d="M244.109-475.578c-0.457,0.322-0.775,0.703-0.969,0.647c-0.293-0.084-0.499-0.473-0.742-0.733
			c0.251-0.211,0.493-0.573,0.755-0.588C243.398-476.268,243.664-475.912,244.109-475.578z"/>
		<path fill="#FFFFFF" d="M61.142-19.691c0.332,0.437,0.691,0.702,0.679,0.949c-0.012,0.26-0.379,0.503-0.592,0.753
			c-0.261-0.243-0.651-0.448-0.736-0.741C60.438-18.924,60.823-19.244,61.142-19.691z"/>
		<path fill="#FFFFFF" d="M231.904-481.65c0.365,0.43,0.775,0.715,0.736,0.91c-0.059,0.299-0.43,0.537-0.668,0.801
			c-0.232-0.229-0.617-0.438-0.654-0.693C231.283-480.879,231.611-481.176,231.904-481.65z"/>
		<path fill="#FFFFFF" d="M37.885-26.853c-0.42,0.358-0.709,0.772-0.905,0.732c-0.299-0.062-0.534-0.437-0.795-0.679
			c0.231-0.233,0.441-0.623,0.699-0.657C37.129-27.487,37.423-27.149,37.885-26.853z"/>
		<path fill="#FFFFFF" d="M444.33-189.509c0.287,0.466,0.648,0.807,0.581,0.998c-0.101,0.286-0.501,0.467-0.774,0.692
			c-0.196-0.262-0.549-0.525-0.546-0.785C443.595-188.85,443.969-189.091,444.33-189.509z"/>
		<path fill="#FFFFFF" d="M256.17-283.552c-0.291-0.495-0.614-0.801-0.57-1.038c0.048-0.251,0.443-0.438,0.687-0.652
			c0.214,0.246,0.584,0.484,0.596,0.739C256.895-284.262,256.529-284.004,256.17-283.552z"/>
		<path fill="#FFFFFF" d="M219.848-75.366c-0.293-0.436-0.631-0.72-0.6-0.954c0.033-0.248,0.488-0.67,0.637-0.623
			c0.294,0.091,0.629,0.422,0.701,0.714C220.629-76.055,220.205-75.765,219.848-75.366z"/>
		<path fill="#FFFFFF" d="M474.503-55.907c-0.365,0.234-0.656,0.523-0.758,0.467c-0.306-0.167-0.537-0.47-0.798-0.72
			c0.227-0.186,0.503-0.558,0.67-0.514C473.901-56.6,474.117-56.264,474.503-55.907z"/>
		<path fill="#FFFFFF" d="M47.287-50.263c-0.365,0.678-0.521,1.146-0.83,1.466c-0.159,0.165-0.592,0.066-0.9,0.087
			c0.062-0.277,0.032-0.673,0.205-0.808C46.118-49.796,46.582-49.935,47.287-50.263z"/>
		<path fill="#FFFFFF" d="M24.705-46.036c-0.286-0.452-0.614-0.74-0.581-0.979c0.035-0.253,0.413-0.458,0.641-0.684
			c0.24,0.256,0.609,0.484,0.674,0.778C25.48-46.734,25.066-46.449,24.705-46.036z"/>
		<path fill="#FFFFFF" d="M158.174-194.658c-0.449,0.359-0.709,0.727-0.949,0.716c-0.254-0.014-0.666-0.378-0.682-0.61
			c-0.015-0.228,0.355-0.635,0.608-0.681C157.388-195.275,157.691-194.948,158.174-194.658z"/>
		<path fill="#FFFFFF" d="M398.748-1.479c-0.498,0.308-0.768,0.603-1.036,0.599c-0.207-0.003-0.604-0.425-0.568-0.579
			c0.063-0.273,0.369-0.641,0.617-0.678C397.986-2.17,398.27-1.817,398.748-1.479z"/>
		<path fill="#FFFFFF" d="M176.607-486.566c0.309,0.422,0.492,0.674,0.678,0.926c-0.268,0.18-0.527,0.479-0.806,0.498
			c-0.193,0.014-0.604-0.392-0.577-0.551C175.947-485.958,176.268-486.175,176.607-486.566z"/>
		<path fill="#FFFFFF" d="M56.085-287.559c-0.5,0.313-0.802,0.648-1.028,0.604c-0.247-0.05-0.532-0.428-0.59-0.707
			c-0.03-0.145,0.396-0.547,0.609-0.541C55.342-288.195,55.599-287.889,56.085-287.559z"/>
		<path fill="#FFFFFF" d="M25.755-336.053c-0.508,0.297-0.821,0.625-1.048,0.574c-0.245-0.056-0.517-0.447-0.566-0.729
			c-0.025-0.147,0.414-0.537,0.624-0.523C25.032-336.713,25.28-336.398,25.755-336.053z"/>
		<path fill="#FFFFFF" d="M2.454-212.764c0.355,0.47,0.674,0.712,0.696,0.978c0.018,0.211-0.364,0.658-0.51,0.635
			c-0.284-0.046-0.681-0.308-0.743-0.554C1.841-211.929,2.165-212.249,2.454-212.764z"/>
		<path fill="#FFFFFF" d="M484.653-212.861c-0.453,0.359-0.716,0.726-0.946,0.706c-0.247-0.021-0.574-0.373-0.65-0.642
			c-0.043-0.153,0.334-0.594,0.542-0.607C483.864-213.423,484.149-213.14,484.653-212.861z"/>
		<path fill="#FFFFFF" d="M394.665-452.385c-0.295-0.473-0.627-0.771-0.585-1.002c0.046-0.248,0.448-0.607,0.681-0.597
			c0.226,0.011,0.589,0.421,0.602,0.671C395.374-453.076,395.011-452.819,394.665-452.385z"/>
		<path fill="#FFFFFF" d="M294.643-75.328c-0.489,0.335-0.776,0.683-1.005,0.647c-0.249-0.04-0.549-0.407-0.616-0.684
			c-0.035-0.146,0.373-0.564,0.583-0.566C293.872-75.934,294.143-75.639,294.643-75.328z"/>
		<path fill="#FFFFFF" d="M52.005-475.432c-0.286-0.535-0.584-0.84-0.544-1.089c0.041-0.256,0.414-0.458,0.641-0.683
			c0.199,0.248,0.543,0.492,0.554,0.748C52.667-476.199,52.342-475.93,52.005-475.432z"/>
		<path fill="#FFFFFF" d="M456.295-342.1c0.357,0.404,0.723,0.646,0.696,0.829c-0.041,0.274-0.315,0.601-0.575,0.72
			c-0.122,0.057-0.612-0.304-0.63-0.503C455.763-341.317,456.038-341.608,456.295-342.1z"/>
		<path fill="#FFFFFF" d="M436.101-308.757c-0.477,0.277-0.753,0.563-1.016,0.552c-0.2-0.01-0.582-0.478-0.532-0.6
			c0.107-0.265,0.415-0.556,0.687-0.609C435.42-309.449,435.679-309.096,436.101-308.757z"/>
		<path fill="#FFFFFF" d="M214.73-397.716c-0.451,0.29-0.737,0.608-0.916,0.558c-0.262-0.077-0.446-0.418-0.664-0.645
			c0.207-0.195,0.424-0.556,0.621-0.546C214.033-398.336,214.281-398.033,214.73-397.716z"/>
		<path fill="#FFFFFF" d="M388.675-282.559c-0.32-0.477-0.66-0.762-0.627-0.992c0.035-0.242,0.402-0.538,0.673-0.602
			c0.145-0.034,0.557,0.371,0.556,0.576C389.274-283.31,388.981-283.045,388.675-282.559z"/>
		<path fill="#FFFFFF" d="M381.474-217.894c-0.286-0.492-0.613-0.808-0.556-1.022c0.063-0.24,0.463-0.497,0.742-0.53
			c0.156-0.019,0.532,0.416,0.511,0.615C382.143-218.567,381.823-218.335,381.474-217.894z"/>
	</g>
</pattern>
<g id="background">
	<g>
		<rect x="-5" y="-2.941" fill="#6CC9BF" width="1710" height="1005.882"/>
		<path fill="#B3F6ED" d="M616.796,174.495H95.749c-1.748,0-2.814-1.92-1.883-3.399c4.03-6.4,14.972-18.77,35.548-9.175
			c0,0,4.036-14.793,26.965-19.971c22.929-5.178,28.846,7.397,28.846,7.397s9.176-20.576,31.805-28.846
			c33.999-12.426,57.693,0,57.693,0s9.787-41.598,68.048-42.16c69.982-0.675,84.32,59.912,84.32,59.912s9.098-10.089,18.491-12.172
			c18.491-4.1,26.627,12.912,26.627,12.912s17.752-9.369,32.915-4.314c15.163,5.054,29.216,25.025,29.216,25.025
			s3.698-12.574,18.491-11.834c14.793,0.74,31.805,18.491,31.805,18.491s17.007-9.448,33.583,4.207
			C619.822,171.884,618.87,174.495,616.796,174.495z"/>
		<path fill="#B3F6ED" d="M1572.403,112.492H1311.88c-0.874,0-1.407-0.96-0.942-1.7c2.015-3.2,7.486-9.385,17.774-4.587
			c0,0,2.018-7.397,13.483-9.985s14.423,3.698,14.423,3.698s4.588-10.288,15.902-14.423c17-6.213,28.846,0,28.846,0
			s4.894-20.799,34.024-21.08c34.991-0.338,42.16,29.956,42.16,29.956s4.549-5.045,9.246-6.086
			c9.246-2.05,13.314,6.456,13.314,6.456s8.876-4.684,16.457-2.157c7.581,2.527,14.608,12.512,14.608,12.512
			s1.849-6.287,9.246-5.917s15.902,9.246,15.902,9.246s8.504-4.724,16.792,2.103C1573.916,111.187,1573.44,112.492,1572.403,112.492
			z"/>
		<path fill="#FFFFFF" d="M194.38,158.78c22.929-5.178,28.846,7.397,28.846,7.397s9.176-20.576,31.805-28.846
			c33.999-12.426,57.693,0,57.693,0s9.787-41.598,68.048-42.16c6.842-0.066,13.145,0.46,18.961,1.452
			c-12.752-10.371-31.036-18.531-56.962-18.281c-58.261,0.562-68.048,42.16-68.048,42.16s-23.694-12.426-57.693,0
			c-22.629,8.271-31.805,28.846-31.805,28.846s-5.917-12.574-28.846-7.397c-22.929,5.178-26.965,19.971-26.965,19.971
			c-20.576-9.595-31.518,2.774-35.548,9.175c-0.931,1.479,0.136,3.399,1.883,3.399h73.702
			C172.425,169.714,179.336,162.177,194.38,158.78z"/>
		<g>
			<path fill="#B3F6ED" d="M-5,289.237c8.808-7.336,21.544-13.173,39.743-12.997c40.151,0.388,46.896,29.055,46.896,29.055
				s16.329-8.564,39.76,0c15.595,5.7,21.919,19.88,21.919,19.88s4.078-8.666,19.88-5.097c15.802,3.568,18.583,13.763,18.583,13.763
				c14.18-6.612,21.721,1.912,24.499,6.323c0.642,1.019-0.093,2.343-1.298,2.343H-5V289.237z"/>
			<path fill="#FFFFFF" d="M82.78,319.153c6.413-9.084,16.118-14.575,26.601-16.98c-16.807-2.605-27.741,3.122-27.741,3.122
				s-6.745-28.668-46.896-29.055C16.544,276.064,3.808,281.901-5,289.237v13.491c3.483-1.761,7.088-2.993,10.495-3.612
				C32.211,294.345,66.56,293.391,82.78,319.153z"/>
		</g>
		<g>
			<path fill="#B3F6ED" d="M1230.624,163.208c8.808-7.336,21.544-13.173,39.743-12.997c40.151,0.388,46.896,29.055,46.896,29.055
				s16.329-8.564,39.76,0c15.595,5.7,21.919,19.88,21.919,19.88s4.078-8.666,19.88-5.097c15.802,3.568,18.583,13.763,18.583,13.763
				c14.18-6.612,21.721,1.912,24.499,6.323c0.642,1.019-0.094,2.343-1.298,2.343h-209.983V163.208z"/>
			<path fill="#FFFFFF" d="M1318.404,193.124c6.413-9.084,16.118-14.575,26.601-16.98c-16.807-2.605-27.741,3.122-27.741,3.122
				s-6.745-28.668-46.896-29.055c-18.199-0.176-30.936,5.661-39.743,12.997V176.7c3.483-1.761,7.088-2.993,10.495-3.612
				C1267.835,168.317,1302.184,167.363,1318.404,193.124z"/>
		</g>
		<path fill="#AEF5ED" d="M796.625,289.237c-8.808-7.336-21.544-13.173-39.743-12.997c-40.151,0.388-46.896,29.055-46.896,29.055
			s-16.329-8.564-39.76,0c-15.595,5.7-21.919,19.88-21.919,19.88s-4.078-8.666-19.88-5.097
			c-15.802,3.568-18.583,13.763-18.583,13.763c-14.18-6.612-21.721,1.912-24.499,6.323c-0.642,1.019,0.094,2.343,1.298,2.343
			h209.983V289.237z"/>
		<path fill="#AEF5ED" d="M701.029,174.495h217.186c1.527,0,2.611-1.524,2.066-2.951c-2.349-6.15-11.821-18.997-49.448-9.387
			c0,0,4.235-17.257-13.825-23.405c-18.061-6.148-45.973,17.006-45.973,17.006s0.204-36.372-32.838-43.262
			c-29.554-6.163-58.013,46.378-58.013,46.378s-8.209-7.662-24.081,0.547c-6.409,3.315-9.779,8.594-11.369,11.944
			c-0.691,1.457,0.38,3.13,1.992,3.13H701.029z"/>
		<g>
			<path fill="#AEF5ED" d="M543.7,342.506H395.311c-1.044,0-1.784-1.041-1.412-2.016c1.605-4.202,8.077-12.98,33.785-6.413
				c0,0-2.894-11.791,9.446-15.991c12.34-4.201,31.41,11.619,31.41,11.619s-0.139-24.851,22.436-29.558
				c20.192-4.21,39.637,31.687,39.637,31.687s5.609-5.235,16.453,0.374c4.379,2.265,6.681,5.872,7.768,8.16
				c0.472,0.995-0.26,2.139-1.361,2.139H543.7z"/>
			<g>
				<path fill="#FFFFFF" d="M469.077,340.849c0,0-2.256-9.191,7.363-12.466c9.619-3.275,24.485,9.057,24.485,9.057
					s-0.107-19.334,17.442-23.03c-7.385-8.448-17.295-16.371-27.391-14.265c-22.575,4.707-22.436,29.558-22.436,29.558
					s-19.07-15.82-31.41-11.619c-12.34,4.201-9.446,15.991-9.446,15.991c-25.708-6.566-32.18,2.212-33.785,6.413
					c-0.372,0.975,0.368,2.016,1.412,2.016h49.722C448.14,339.627,454.803,337.204,469.077,340.849z"/>
			</g>
		</g>
		<g>
			<path fill="#AEF5ED" d="M1628.167,216.478h-148.389c-1.044,0-1.784-1.041-1.412-2.016c1.605-4.202,8.077-12.98,33.785-6.413
				c0,0-2.894-11.791,9.446-15.991c12.34-4.201,31.41,11.619,31.41,11.619s-0.139-24.851,22.436-29.558
				c20.192-4.21,39.637,31.687,39.637,31.687s5.609-5.235,16.453,0.374c4.379,2.265,6.681,5.872,7.768,8.16
				c0.472,0.995-0.26,2.139-1.361,2.139H1628.167z"/>
			<g>
				<path fill="#FFFFFF" d="M1553.544,214.821c0,0-2.256-9.191,7.363-12.466s24.485,9.057,24.485,9.057s-0.107-19.334,17.442-23.03
					c-7.385-8.448-17.295-16.371-27.391-14.265c-22.575,4.707-22.436,29.558-22.436,29.558s-19.07-15.82-31.41-11.619
					c-12.34,4.201-9.446,15.991-9.446,15.991c-25.708-6.566-32.18,2.212-33.785,6.413c-0.372,0.975,0.368,2.016,1.412,2.016h49.722
					C1532.607,213.598,1539.27,211.175,1553.544,214.821z"/>
			</g>
		</g>
		<g>
			<path fill="#FFFFFF" d="M574.272,464.971c10.419,7.048,27.088,5.963,37.924-0.271c7.501,1.897,13.753,5.692,21.671,6.234
				c4.23,0.25,8.992-0.021,13.428-0.889l-48.306-78.235c-1.09-1.766-4.933-1.766-6.023,0l-51.481,83.376
				C554.38,475.659,567.76,472.383,574.272,464.971z"/>
			<path fill="#72AEAF" d="M748.246,634.171L647.295,470.045c-4.435,0.869-9.197,1.139-13.428,0.889
				c-7.918-0.542-14.169-4.337-21.671-6.234c-10.835,6.234-27.505,7.319-37.924,0.271c-6.512,7.412-19.892,10.688-32.788,10.215
				l-97.807,158.985H748.246z"/>
			<path opacity="0.1" fill="#00007C" d="M748.246,634.171L602.339,397.237c-0.685-1.109-3.247-0.605-2.871,0.565l47.826,236.369
				H748.246z"/>
		</g>
		<g>
			<path fill="#FFFFFF" d="M1144.822,255.257c23.332,15.783,60.663,13.355,84.928-0.607c16.799,4.249,30.798,12.748,48.53,13.962
				c9.474,0.56,20.138-0.046,30.071-1.991L1200.172,91.417c-2.441-3.954-11.047-3.954-13.488,0l-115.288,186.716
				C1100.274,279.192,1130.239,271.856,1144.822,255.257z"/>
			<path fill="#72AEAF" d="M1534.427,634.171L1308.351,266.62c-9.933,1.945-20.597,2.551-30.071,1.991
				c-17.732-1.214-31.731-9.713-48.53-13.962c-24.265,13.962-61.596,16.39-84.928,0.607c-14.583,16.599-44.548,23.935-73.426,22.876
				L852.362,634.171H1534.427z"/>
			<path opacity="0.1" fill="#00007C" d="M1534.427,634.171l-326.751-530.6c-1.534-2.484-7.271-1.355-6.429,1.266l107.104,529.334
				L1534.427,634.171z"/>
		</g>
		<path fill="#9CECE7" d="M1248.167,573.025c-3.309-12.624-6.504-25.74-9.569-39.37c-0.16-0.708-1.315-0.682-1.587,0.036
			c-3.82,10.079-7.769,19.924-11.838,29.538c-0.268,0.634-1.372,0.697-1.603,0.091c-2.388-6.257-4.728-12.642-7.018-19.158
			c-0.205-0.584-1.16-0.62-1.526-0.057c-4.15,6.372-8.385,12.634-12.703,18.787c-0.389,0.554-1.403,0.48-1.565-0.115
			c-3.277-11.971-6.413-24.368-9.391-37.204c-0.178-0.765-1.402-0.75-1.624,0.021c-3.244,11.298-6.584,22.303-10.01,33.025
			c-0.023,0.071-0.058,0.133-0.099,0.19c-7.571-19.346-14.62-39.874-21.043-61.63c-0.395-1.333-2.37-1.296-2.717,0.052
			c-4.815,18.753-9.796,36.727-14.919,53.968c-0.333,1.127-2.265,1.225-2.801,0.141c-5.585-11.272-10.944-22.955-16.053-35.049
			c-0.462-1.091-2.145-1.196-2.696-0.167c-6.194,11.603-12.569,22.857-19.113,33.772c-0.586,0.979-2.425,0.795-2.837-0.286
			c-8.406-22.021-16.031-45.414-22.717-70.191c-0.405-1.496-2.601-1.583-2.917-0.113c-4.552,21.342-9.03,41.731-13.431,61.231
			c-0.279,1.247-2.512,1.202-3.049-0.063c-3.876-9.128-7.603-18.48-11.171-28.056c-0.476-1.276-2.521-1.478-3.003-0.295
			c-3.924,9.66-7.882,19.1-11.873,28.327c-0.469,1.087-2.54,0.901-3.084-0.28c-6.534-14.168-12.697-28.871-18.443-44.1
			c-0.234-0.62-1.149-0.54-1.263,0.112c-0.872,4.99-1.797,10.135-2.748,15.355v28.652v1.563v39.59
			c2.532,0.187,5.062,0.363,7.59,0.533c2.039,0.193,4.211,0.39,5.253,0.543c-0.001,0-0.01-0.074-0.026-0.203
			c7.759,0.485,15.492,0.888,23.188,1.205c0.001,0.005,0.001,0.011,0.002,0.011c0.894,0.136,3.031,0.164,5.172,0.19
			c1.704,0.062,3.406,0.118,5.106,0.171c0.036,0.005,0.075,0.009,0.108,0.014c0.001,0,0.001-0.005,0.002-0.01
			c7.882,0.245,15.719,0.397,23.497,0.451c0.001,0.004,0.002,0.01,0.003,0.01c0.111-0.004,0.246-0.006,0.399-0.009
			c1.776,0.012,3.55,0.019,5.32,0.021c2.266,0.021,4.296,0.04,4.292,0.004c0-0.004-0.001-0.01-0.002-0.014
			c10.97-0.042,21.809-0.284,32.483-0.735c-0.001,0.037-0.001,0.06,0.002,0.06c0.955,0.119,2.464-0.081,3.886-0.233
			c0.852-0.04,1.703-0.082,2.553-0.125c0.052,0.004,0.108,0.007,0.157,0.013c0.001,0,0.003-0.007,0.004-0.02
			c17.44-0.884,34.408-2.342,50.745-4.421c-0.011,0.135-0.023,0.271-0.033,0.406c4.235-0.096,8.462-0.229,12.681-0.395
			c0,0,0,0.003,0,0.003c0.029-0.002,0.075-0.005,0.134-0.008c8.041-0.318,16.054-0.761,24.038-1.334c0,0,0,0.001,0,0.001
			c-0.001,0.003,0.046-0.001,0.129-0.01c1.271-0.091,2.54-0.188,3.81-0.286c0.005,0.001,0.011,0.001,0.016,0.001
			c0,0,0-0.003,0-0.003c6.517-0.503,13.016-1.088,19.497-1.761c0,0,0,0,0,0.001c0,0,2.948-0.27,2.948-0.312c0-0.001,0-0.002,0-0.003
			c3.557-0.383,7.108-0.789,10.655-1.224C1247.884,573.811,1248.267,573.405,1248.167,573.025z"/>
		<path fill="#9CECE7" d="M522.851,547.2c-3.694-12.624-7.261-25.74-10.683-39.37c-0.178-0.708-1.468-0.682-1.772,0.036
			c-4.264,10.079-8.674,19.924-13.216,29.538c-0.299,0.634-1.532,0.697-1.79,0.091c-2.666-6.257-5.279-12.642-7.835-19.158
			c-0.229-0.584-1.295-0.62-1.704-0.057c-4.633,6.372-9.362,12.634-14.182,18.787c-0.434,0.554-1.566,0.481-1.747-0.115
			c-3.659-11.971-7.16-24.368-10.484-37.204c-0.199-0.765-1.566-0.75-1.813,0.021c-3.622,11.298-7.351,22.303-11.176,33.025
			c-0.025,0.071-0.064,0.133-0.111,0.19c-8.453-19.346-16.322-39.874-23.493-61.63c-0.44-1.333-2.646-1.296-3.034,0.052
			c-5.376,18.753-10.937,36.727-16.656,53.968c-0.372,1.127-2.528,1.225-3.127,0.141c-6.235-11.272-12.218-22.955-17.922-35.049
			c-0.515-1.091-2.395-1.196-3.009-0.167c-6.916,11.603-14.033,22.857-21.339,33.772c-0.654,0.979-2.708,0.795-3.168-0.286
			c-9.385-22.021-17.897-45.414-25.363-70.191c-0.452-1.496-2.904-1.583-3.256-0.113c-5.082,21.342-10.082,41.731-14.995,61.231
			c-0.312,1.247-2.805,1.202-3.404-0.063c-4.327-9.128-8.488-18.48-12.472-28.056c-0.531-1.276-2.815-1.478-3.353-0.295
			c-4.38,9.66-8.8,19.1-13.256,28.327c-0.524,1.087-2.836,0.901-3.444-0.28c-7.294-14.168-14.176-28.871-20.59-44.1
			c-0.261-0.62-1.283-0.54-1.41,0.112c-0.973,4.99-2.006,10.135-3.068,15.355v28.652v1.563v39.59
			c2.827,0.187,5.651,0.363,8.473,0.533c2.277,0.193,4.701,0.39,5.864,0.543c-0.001,0-0.011-0.074-0.029-0.203
			c8.663,0.485,17.296,0.888,25.888,1.204c0.001,0.005,0.001,0.011,0.003,0.011c0.999,0.136,3.385,0.164,5.774,0.19
			c1.902,0.062,3.802,0.118,5.7,0.171c0.041,0.005,0.084,0.009,0.121,0.014c0.001,0,0.002-0.005,0.002-0.01
			c8.8,0.245,17.549,0.397,26.233,0.451c0.001,0.004,0.002,0.01,0.003,0.01c0.124-0.004,0.275-0.006,0.445-0.009
			c1.983,0.012,3.963,0.019,5.939,0.021c2.53,0.021,4.797,0.04,4.791,0.004c-0.001-0.004-0.001-0.01-0.002-0.014
			c12.247-0.042,24.348-0.284,36.266-0.735c-0.001,0.037-0.001,0.06,0.002,0.06c1.066,0.119,2.751-0.081,4.338-0.233
			c0.951-0.04,1.901-0.082,2.85-0.125c0.058,0.004,0.12,0.007,0.175,0.013c0.002,0,0.003-0.007,0.005-0.02
			c19.47-0.884,38.415-2.342,56.654-4.421c-0.012,0.135-0.026,0.271-0.037,0.406c4.729-0.096,9.447-0.229,14.158-0.395
			c0,0,0,0.003,0,0.003c0.033-0.002,0.084-0.005,0.149-0.008c8.978-0.318,17.923-0.761,26.837-1.334c0,0,0,0.001,0,0.001
			c-0.001,0.003,0.051-0.001,0.144-0.01c1.419-0.091,2.836-0.188,4.253-0.286c0.006,0.001,0.013,0.001,0.018,0.001
			c0,0,0-0.003,0.001-0.003c7.276-0.503,14.532-1.088,21.768-1.761c0,0,0,0.001,0,0.001c0,0,3.291-0.27,3.291-0.312
			c0-0.001,0-0.002,0-0.003c3.971-0.383,7.936-0.789,11.895-1.224C522.535,547.986,522.963,547.581,522.851,547.2z"/>
		<path fill="#9CECE7" d="M1694.943,474.2c-3.815-15.415-7.431-31.58-10.825-48.566c-0.178-0.887-1.977-0.688-2.469,0.271
			c-6.777,13.204-13.492,25.682-20.134,37.473c-0.43,0.763-2.002,0.894-2.285,0.192c-2.922-7.253-5.769-14.664-8.539-22.242
			c-0.249-0.679-1.578-0.626-2.124,0.084c-6.092,7.916-12.121,15.491-18.086,22.738c-0.529,0.643-1.834,0.608-2.016-0.053
			c-3.688-13.333-7.199-27.249-10.517-41.8c-0.199-0.871-1.762-0.685-2.071,0.244c-4.452,13.397-8.874,26.065-13.258,38.047
			c-0.028,0.078-0.072,0.147-0.122,0.211c-8.53-20.548-16.445-42.49-23.67-66.033c-0.446-1.449-2.701-1.037-3.099,0.558
			c-5.382,21.638-10.698,41.48-15.931,59.705c-0.333,1.163-2.309,1.375-2.867,0.311c-5.803-11.033-11.366-22.462-16.676-34.312
			c-0.479-1.068-2.132-0.968-2.644,0.156c-5.64,12.409-11.245,24.027-16.804,34.903c-0.487,0.956-2.125,0.879-2.528-0.115
			c-8.227-20.27-15.856-41.986-22.801-65.347c-0.422-1.419-2.289-1.133-2.477,0.374c-2.638,21.364-5.158,40.939-7.564,58.931
			c-0.149,1.127-1.884,1.219-2.37,0.13c-3.505-7.854-6.907-15.914-10.202-24.19c-0.439-1.103-1.992-1.079-2.278,0.032
			c-2.293,8.946-4.571,17.49-6.832,25.652c-0.262,0.949-1.741,0.904-2.203-0.065c-5.543-11.609-10.854-23.676-15.915-36.232
			c-0.206-0.511-0.821-0.34-0.848,0.236c-0.208,4.393-0.437,8.884-0.677,13.402l2.137,23.818l0.115,1.277l2.833,31.577
			c1.66,0.138,3.328,0.268,5.007,0.394c1.367,0.147,2.831,0.297,3.541,0.416c-0.001,0-0.012-0.059-0.031-0.161
			c5.307,0.371,10.712,0.683,16.21,0.931c0.001,0.004,0.002,0.009,0.002,0.009c0.653,0.111,2.203,0.132,3.765,0.151
			c1.253,0.05,2.511,0.095,3.774,0.138c0.027,0.004,0.056,0.008,0.081,0.012c0.001,0,0.001-0.004,0.001-0.009
			c5.945,0.201,11.996,0.329,18.147,0.375c0.001,0.004,0.002,0.009,0.003,0.009c0.089-0.003,0.197-0.006,0.319-0.008
			c1.428,0.01,2.862,0.017,4.301,0.018c1.855,0.018,3.529,0.035,3.523,0.004c-0.001-0.004-0.001-0.008-0.002-0.012
			c9.233-0.038,18.686-0.26,28.339-0.684c0,0.034,0.001,0.055,0.003,0.056c0.885,0.109,2.281-0.079,3.603-0.222
			c0.797-0.039,1.595-0.079,2.395-0.121c0.049,0.004,0.102,0.006,0.148,0.011c0.001,0,0.002-0.006,0.004-0.019
			c16.968-0.889,34.556-2.41,52.619-4.67c-0.015,0.141-0.031,0.281-0.045,0.422c4.867-0.143,9.806-0.328,14.821-0.551
			c0,0,0,0.003,0,0.003c0.035-0.002,0.09-0.006,0.16-0.01c9.8-0.437,19.894-1.027,30.301-1.781c0,0,0,0.001,0,0.001
			c-0.001,0.003,0.06-0.002,0.171-0.013c1.69-0.123,3.388-0.252,5.094-0.383c0.007,0.001,0.015,0.001,0.022,0.001
			c0,0,0.001-0.003,0.001-0.003c8.912-0.686,18.062-1.488,27.461-2.415c0,0,0,0.001,0,0.001c0,0,4.364-0.388,4.367-0.438
			c0-0.001,0-0.003,0-0.004c5.349-0.545,10.781-1.126,16.299-1.752C1694.416,475.17,1695.058,474.664,1694.943,474.2z"/>
		<path fill="#D4F8F6" d="M1705,478.972c0,0-150.597-29.517-309.989,44.956c-209.978,98.108-423.527,20.777-423.527,20.777v136.179
			H1705V478.972z"/>
		<g>
			<path fill="#FFFFFF" d="M1435.681,377.133c15.827,10.706,41.151,9.059,57.611-0.412c11.396,2.883,20.892,8.647,32.921,9.471
				c6.427,0.38,13.661-0.031,20.399-1.351l-73.384-118.85c-1.656-2.682-7.493-2.682-9.149,0l-78.206,126.659
				C1405.462,393.37,1425.788,388.393,1435.681,377.133z"/>
			<path fill="#367272" d="M1699.971,634.171l-153.359-249.329c-6.738,1.319-13.972,1.731-20.399,1.351
				c-12.029-0.824-21.525-6.589-32.921-9.471c-16.46,9.471-41.784,11.118-57.611,0.412c-9.893,11.26-30.219,16.237-49.809,15.518
				l-148.582,241.52H1699.971z"/>
			<path opacity="0.1" fill="#00007C" d="M1699.971,634.171l-221.652-359.934c-1.041-1.685-4.932-0.919-4.361,0.859l72.654,359.076
				L1699.971,634.171z"/>
		</g>
		<g>
			<path fill="#FFFFFF" d="M803.548,348.786c17.573,11.887,45.689,10.058,63.965-0.457c12.652,3.2,23.196,9.601,36.551,10.516
				c7.135,0.422,15.167-0.035,22.648-1.5l-81.477-131.957c-1.839-2.978-8.32-2.978-10.158,0l-86.831,140.628
				C769.996,366.813,792.565,361.288,803.548,348.786z"/>
			<path fill="#367272" d="M1096.985,634.171L926.712,357.345c-7.481,1.465-15.513,1.922-22.648,1.5
				c-13.355-0.914-23.899-7.315-36.551-10.516c-18.276,10.516-46.392,12.344-63.965,0.457
				c-10.984,12.502-33.552,18.027-55.302,17.229L583.278,634.171H1096.985z"/>
			<path opacity="0.1" fill="#00007C" d="M1096.985,634.171L850.888,234.542c-1.155-1.871-5.476-1.021-4.842,0.953l80.667,398.676
				L1096.985,634.171z"/>
		</g>
		<path fill="#D4F8F6" d="M964.756,655.458c0,0-240.575-116.001-537.133-116.001S-5,646.718-5,646.718L964.756,655.458z"/>
		<g>
			<g>
				<g>
					<g>
						<path fill="#F2FEFA" d="M563.649,659.608c0.137-1.331,0.289-2.668,0.434-4.002c0.023-0.215,0.042-0.39,0.058-0.537
							c0.001-0.012,0.003-0.021,0.004-0.032c0.32-2.46,0.639-4.927,0.981-7.395c1.436-10.388,3.095-20.838,4.569-31.381
							c1.476-10.562,2.853-21.247,3.699-32.02c1.645,5.082,3.3,10.144,4.965,15.18c0.749,2.27,4.81,2.146,5.549-0.17
							c11.465-35.881,22.641-72.709,33.498-110.516c0.741-2.579,4.838-2.628,5.434-0.069c9.965,42.954,20.459,84.439,31.426,124.501
							c0.543,1.991,3.936,2.239,5.238,0.384c14.448-20.59,28.62-41.545,42.508-62.87c1.226-1.882,4.419-1.761,5.107,0.192
							c7.662,21.804,15.494,43.172,23.484,64.112c0.772,2.027,4.467,1.817,5.365-0.304c13.616-32.173,26.832-65.119,39.615-98.849
							c0.91-2.403,4.777-2.489,5.311-0.12c10.257,45.612,20.95,89.506,32.022,131.751c0.335,1.274-0.947,2.63-2.689,2.844
							c-81.584,9.998-163.981,15.956-247.332,17.836C563.106,665.303,563.356,662.458,563.649,659.608z"/>
					</g>
					<g>
						<g>
							<path fill="#9CECE7" d="M774.57,654.414c-0.089-9.986,0.309-23.258,0.222-33.425c-0.001-0.043,0.014-0.087,0.042-0.127
								c2.578-3.716,5.149-7.444,7.709-11.183c0.163-0.239-0.165-0.454-0.435-0.286c-2.11,1.311-4.222,2.619-6.337,3.923
								c-0.203,0.125-0.475,0.037-0.477-0.157c-0.295-15.428-0.586-31.04-0.877-46.835c-0.006-0.321-0.581-0.286-0.608,0.038
								c-1.712,20.394-3.46,40.49-5.243,60.297c-0.017,0.191-0.295,0.316-0.491,0.22c-3.21-1.582-6.414-3.174-9.615-4.777
								c-0.263-0.132-0.611,0.134-0.455,0.348c2.951,4.074,5.913,8.126,8.887,12.155c0.029,0.04,0.042,0.086,0.036,0.134
								c-0.688,5.534-2.307,20.604-2.22,20.719C764.706,655.458,774.571,654.554,774.57,654.414z"/>
						</g>
						<g>
							<path fill="#9CECE7" d="M609.37,635.373c1.351-11.251,2.696-22.597,4.036-34.037c0.005-0.049-0.005-0.097-0.031-0.14
								c-2.408-4.016-4.81-8.047-7.199-12.097c-0.152-0.258,0.239-0.523,0.519-0.351c2.184,1.345,4.373,2.683,6.562,4.016
								c0.21,0.128,0.522,0.011,0.549-0.207c2.203-17.389,4.39-34.999,6.56-52.831c0.045-0.365,0.676-0.354,0.668,0.01
								c-0.495,22.894-0.967,45.411-1.414,67.563c-0.004,0.213,0.289,0.336,0.517,0.214c3.748-1.989,7.487-3.991,11.219-5.999
								c0.308-0.168,0.659,0.109,0.46,0.36c-3.755,4.766-7.528,9.512-11.317,14.236c-0.038,0.047-0.056,0.1-0.056,0.153
								c0.048,3.479,0.509,49.877,0.507,49.877c0-0.002-14.091,0.587-15.618,0.691C605.125,666.843,609.347,635.533,609.37,635.373z
								"/>
						</g>
						<g>
							<path fill="#9CECE7" d="M701.167,616.619c0.001-0.027,0.017-0.054,0.046-0.077c2.675-2.073,5.344-4.152,8.009-6.237
								c0.17-0.133-0.147-0.308-0.42-0.233c-2.131,0.589-4.263,1.176-6.396,1.761c-0.206,0.057-0.468-0.034-0.466-0.156
								c0.259-9.852,0.518-19.776,0.777-29.773c0.006-0.203-0.566-0.249-0.604-0.049c-2.405,12.667-4.835,25.219-7.291,37.661
								c-0.023,0.122-0.302,0.167-0.492,0.083c-3.108-1.392-6.214-2.79-9.315-4.198c-0.257-0.117-0.608,0.013-0.461,0.168
								c2.771,2.964,5.55,5.912,8.336,8.846c0.027,0.028,0.039,0.06,0.03,0.09c-0.879,3.476-5.838,34.445-6.7,37.835
								c-0.021,0.079,10.125-1.338,13.236-0.985C699.636,661.377,700.891,623.136,701.167,616.619z"/>
						</g>
					</g>
				</g>
				<g>
					<g>
						<g>
							<g>
								<path fill="#F2FEFA" d="M596.126,631.309c-30.131-73.813-57.962-152.965-82.969-237.664
									c-1.32-4.462-7.931-4.337-9.093,0.174c-16.113,62.755-32.783,122.906-49.927,180.604c-1.116,3.771-7.578,4.099-9.373,0.473
									c-18.689-37.723-36.624-76.819-53.721-117.292c-1.545-3.652-7.179-4.002-9.021-0.559
									c-20.729,38.828-42.063,76.489-63.962,113.017c-1.96,3.276-8.116,2.66-9.495-0.958
									c-28.132-73.693-53.646-151.976-76.024-234.892c-1.354-5.008-8.704-5.298-9.761-0.379
									c-15.233,71.42-30.219,139.651-44.946,204.909c-0.935,4.173-8.408,4.023-10.205-0.21
									c-12.97-30.546-25.443-61.843-37.384-93.888c-1.592-4.269-8.437-4.946-10.05-0.987
									c-13.13,32.327-26.378,63.919-39.734,94.796c-1.57,3.639-8.501,3.016-10.322-0.936
									c-21.865-47.413-42.491-96.615-61.719-147.58c-0.782-2.074-3.846-1.807-4.227,0.373c-2.917,16.7-6.012,33.916-9.195,51.385
									v233.601c210.351,15.55,416.448,13.439,597.492-12.482C595.429,662.393,597.024,633.505,596.126,631.309z"/>
							</g>
						</g>
					</g>
					<g>
						<g>
							<path fill="#9CECE7" d="M523.502,585.7c-0.004-0.078,0.004-0.154,0.044-0.225c3.657-6.6,7.293-13.236,10.909-19.905
								c0.23-0.426-0.388-0.807-0.821-0.505c-3.376,2.35-6.76,4.695-10.154,7.026c-0.325,0.223-0.817,0.066-0.866-0.276
								c-3.967-27.536-7.75-55.661-11.341-84.389c-0.073-0.588-1.062-0.526-1.045,0.068c1.036,37.036,2.272,73.115,3.697,108.266
								c0.013,0.337-0.444,0.56-0.807,0.391c-5.974-2.773-11.939-5.578-17.896-8.413c-0.492-0.235-1.04,0.234-0.719,0.616
								c6.072,7.203,12.182,14.337,18.33,21.403c0.06,0.07,0.093,0.152,0.093,0.236c0.079,9.709-3.179,52.885-3.05,62.22
								c0.002,0.216,20.518-1.99,20.807-1.988C530.688,670.224,525.044,621.291,523.502,585.7z"/>
						</g>
						<g>
							<g>
								<g>
									<path fill="#9CECE7" d="M22.267,537.723c-0.008-0.084,0.012-0.166,0.058-0.234c4.397-6.388,8.781-12.814,13.152-19.275
										c0.279-0.413-0.41-0.942-0.914-0.704c-3.931,1.867-7.873,3.723-11.827,5.568c-0.378,0.177-0.934-0.09-0.977-0.466
										c-3.492-30.404-6.573-61.396-9.22-92.98c-0.055-0.646-1.187-0.779-1.2-0.139c-0.694,40.002-0.794,79.06-0.336,117.195
										c0.004,0.367-0.524,0.517-0.934,0.264C5.044,543.855,0.022,540.716-5,537.578v5.231c4.749,6.28,9.513,12.536,14.309,18.742
										c0.066,0.086,0.101,0.181,0.099,0.271C9.16,561.79,6.59,675.575,7.159,675.65c6.278,0.948,24.586,2.33,30.817,3.244
										C37.897,678.899,21.795,537.66,22.267,537.723z"/>
								</g>
							</g>
						</g>
						<g>
							<path fill="#9CECE7" d="M231.666,606.236c0.108-20.114,0.311-40.514,0.611-61.202c0.001-0.087-0.027-0.179-0.083-0.258
								c-5.15-7.513-10.265-15.082-15.342-22.71c-0.324-0.487,0.344-0.94,0.885-0.6c4.225,2.648,8.453,5.279,12.687,7.894
								c0.404,0.25,0.952,0.059,0.962-0.337c0.864-31.833,1.947-64.354,3.262-97.585c0.027-0.681,1.17-0.61,1.21,0.075
								c2.435,42.786,5.403,84.382,8.865,124.828c0.034,0.388,0.591,0.63,0.982,0.426c6.438-3.347,12.844-6.723,19.22-10.128
								c0.526-0.283,1.214,0.242,0.903,0.685c-5.889,8.41-11.817,16.756-17.784,25.039c-0.058,0.081-0.084,0.177-0.072,0.273
								c1.364,11.122,13.05,102.161,14.424,112.472c0.033,0.237-27.27-0.258-33.499-0.056
								C228.507,685.062,231.632,606.521,231.666,606.236z"/>
						</g>
						<g>
							<path fill="#9CECE7" d="M393.079,577.188c-0.003-0.049,0.019-0.098,0.065-0.136c4.313-3.634,8.609-7.286,12.889-10.955
								c0.272-0.233-0.323-0.558-0.791-0.428c-3.648,1.004-7.303,1.997-10.965,2.985c-0.351,0.095-0.838-0.071-0.858-0.293
								c-1.591-17.711-3.104-35.654-4.537-53.828c-0.029-0.372-1.047-0.474-1.076-0.11c-1.848,22.943-3.643,45.527-5.387,67.761
								c-0.017,0.213-0.502,0.291-0.857,0.133c-5.826-2.583-11.649-5.194-17.467-7.83c-0.481-0.218-1.08-0.001-0.787,0.285
								c5.549,5.409,11.121,10.774,16.714,16.097c0.055,0.052,0.08,0.109,0.073,0.162c-0.855,6.161-9.319,91.735-8.994,91.772
								c5.516,0.685,16.565-1.808,22.073-1.155C393.471,681.684,393.935,588.815,393.079,577.188z"/>
						</g>
						<g>
							<path fill="#9CECE7" d="M140.638,620.956c-1.721-11.682-3.39-23.459-5.006-35.336c-0.007-0.051,0.015-0.098,0.062-0.135
								c4.432-3.526,8.847-7.072,13.245-10.635c0.279-0.228-0.38-0.58-0.875-0.468c-3.869,0.872-7.745,1.74-11.632,2.595
								c-0.372,0.083-0.906-0.107-0.94-0.333c-2.716-18.102-5.306-36.437-7.767-54.999c-0.049-0.38-1.153-0.527-1.167-0.158
								c-0.84,23.279-1.542,46.21-2.113,68.791c-0.006,0.218-0.525,0.275-0.915,0.101c-6.429-2.865-12.86-5.763-19.291-8.687
								c-0.531-0.242-1.166-0.045-0.833,0.258c6.305,5.74,12.629,11.432,18.973,17.08c0.062,0.056,0.093,0.112,0.088,0.168
								c-0.557,6.244-7.331,83.039-6.973,83.088c6.01,0.914,28.787,0.365,34.755,1.254
								C150.55,683.586,140.636,620.975,140.638,620.956z"/>
						</g>
					</g>
				</g>
			</g>
			<path fill="#118C80" d="M233.61,611.574"/>
		</g>
		<g>
			<path fill="#9EF8EC" d="M452.8,656.994c0,9.532-7.727,17.259-17.259,17.259h-92.301c-9.532,0-17.259,7.727-17.259,17.259
				c0,9.532,7.727,17.26,17.259,17.26h155.62c9.532,0,17.259,7.727,17.259,17.259c0,9.532-7.727,17.259-17.259,17.259h-85.081
				c-9.532,0-17.259,7.727-17.259,17.26c0,9.532,7.727,17.259,17.259,17.259h30.016c9.532,0,17.259,7.727,17.259,17.259
				c0,9.532-7.727,17.259-17.259,17.259H343.239c-9.532,0-17.259,7.727-17.259,17.26c0,9.532,7.727,17.259,17.259,17.259h92.301
				c9.532,0,17.259,7.727,17.259,17.26c0,9.532-7.727,17.259-17.259,17.259h-15.161c-9.532,0-17.259,7.727-17.259,17.259
				s7.727,17.26,17.259,17.26h15.161c9.532,0,17.259,7.727,17.259,17.259c0,9.532,7.727,17.259,17.259,17.259h28.8
				c9.532,0,17.259,7.727,17.259,17.259c0,9.532-7.727,17.26-17.259,17.26h-20.546c-9.532,0-17.259,7.727-17.259,17.259
				c0,0.256-0.027,0.504-0.038,0.757h237.367c0.011-0.253,0.038-0.502,0.038-0.757c0-9.532-7.727-17.259-17.259-17.259h-92.301
				c-9.532,0-17.259-7.727-17.259-17.26c0-9.532,7.727-17.259,17.259-17.259h15.161c9.532,0,17.259-7.727,17.259-17.259
				c0-9.532-7.727-17.259-17.259-17.259h-15.161c-9.532,0-17.259-7.727-17.259-17.26c0-9.532-7.727-17.259-17.26-17.259h-28.8
				c-9.532,0-17.259-7.727-17.259-17.259c0-9.532,7.727-17.26,17.259-17.26h20.546c9.532,0,17.26-7.727,17.26-17.259
				s7.727-17.26,17.259-17.26h100.555c9.532,0,17.259-7.727,17.259-17.259c0-9.532-7.727-17.259-17.259-17.259h-92.301
				c-9.532,0-17.259-7.727-17.259-17.259c0-9.532,7.727-17.26,17.259-17.26h15.161c9.532,0,17.259-7.727,17.259-17.259
				s-7.727-17.259-17.259-17.259h-15.161c-9.532,0-17.259-7.727-17.259-17.26c0-9.532-7.727-17.259-17.26-17.259h-28.8
				c-9.532,0-17.259-7.727-17.259-17.259c0-9.532,7.727-17.259,17.259-17.259H435.54C445.072,639.735,452.8,647.462,452.8,656.994z"
				/>
			<path fill="#9EF8EC" d="M953.78,641.188v-1.453h-92.247c2.466,0,4.81,0.521,6.932,1.453H953.78z"/>
			<path fill="#67F4E1" d="M271.4,656.307c0,9.558-7.727,17.305-17.26,17.305h-28.8c-9.532,0-17.259,7.748-17.259,17.305
				c0,9.558-7.727,17.305-17.259,17.305h-15.161c-9.532,0-17.26,7.748-17.26,17.305c0,9.558,7.727,17.305,17.26,17.305h15.161
				c9.532,0,17.259,7.748,17.259,17.305c0,9.558-7.727,17.305-17.259,17.305H98.521c-9.532,0-17.259,7.748-17.259,17.305
				c0,9.558,7.727,17.305,17.259,17.305h100.555c9.532,0,17.26,7.748,17.26,17.305c0,9.557,7.727,17.305,17.259,17.305h20.546
				c9.532,0,17.26,7.748,17.26,17.305c0,9.558-7.727,17.305-17.26,17.305h-28.8c-9.532,0-17.259,7.748-17.259,17.305
				s-7.727,17.305-17.259,17.305h-15.161c-9.532,0-17.26,7.748-17.26,17.305c0,9.558,7.727,17.305,17.26,17.305h15.161
				c9.532,0,17.259,7.748,17.259,17.305c0,9.558-7.727,17.305-17.259,17.305H98.521c-9.532,0-17.259,7.748-17.259,17.305
				c0,0.178,0.021,0.351,0.027,0.528h379.728c0.011-0.253,0.038-0.502,0.038-0.757c0-9.532,7.727-17.259,17.259-17.259h20.546
				c9.532,0,17.259-7.727,17.259-17.26c0-9.532-7.727-17.259-17.259-17.259h-28.8c-9.532,0-17.259-7.727-17.259-17.259
				c0-9.532-7.727-17.259-17.259-17.259h-15.161c-9.532,0-17.259-7.727-17.259-17.26s7.727-17.259,17.259-17.259h15.161
				c9.532,0,17.259-7.727,17.259-17.259c0-9.532-7.727-17.26-17.259-17.26h-92.301c-9.532,0-17.259-7.727-17.259-17.259
				c0-9.532,7.727-17.26,17.259-17.26h100.555c9.532,0,17.259-7.727,17.259-17.259c0-9.532-7.727-17.259-17.259-17.259h-30.016
				c-9.532,0-17.259-7.727-17.259-17.259c0-9.532,7.727-17.26,17.259-17.26h85.081c9.532,0,17.259-7.727,17.259-17.259
				c0-9.532-7.727-17.259-17.259-17.259h-155.62c-9.532,0-17.259-7.727-17.259-17.26c0-9.532,7.727-17.259,17.259-17.259h92.301
				c9.532,0,17.259-7.727,17.259-17.259c0-9.532-7.727-17.259-17.259-17.259H259.102C266.214,641.873,271.4,648.479,271.4,656.307z"
				/>
			<path fill="#9EF8EC" d="M98.521,985.108h92.301c9.532,0,17.259-7.748,17.259-17.305c0-9.557-7.727-17.305-17.259-17.305h-15.161
				c-9.532,0-17.26-7.748-17.26-17.305c0-9.557,7.727-17.305,17.26-17.305h15.161c9.532,0,17.259-7.748,17.259-17.305
				s7.727-17.305,17.259-17.305h28.8c9.532,0,17.26-7.748,17.26-17.305c0-9.557-7.727-17.305-17.26-17.305h-20.546
				c-9.532,0-17.259-7.748-17.259-17.305c0-9.557-7.727-17.305-17.26-17.305H98.521c-9.532,0-17.259-7.748-17.259-17.305
				c0-9.557,7.727-17.305,17.259-17.305h92.301c9.532,0,17.259-7.748,17.259-17.305c0-9.557-7.727-17.305-17.259-17.305h-15.161
				c-9.532,0-17.26-7.748-17.26-17.305c0-9.557,7.727-17.305,17.26-17.305h15.161c9.532,0,17.259-7.748,17.259-17.305
				c0-9.557,7.727-17.305,17.259-17.305h28.8c9.532,0,17.26-7.748,17.26-17.305c0-7.827-5.186-14.434-12.299-16.572h-19.144H99.549
				H26.535c9.532,0,17.259,7.727,17.259,17.259c0,9.532-7.727,17.259-17.259,17.259H-5v34.519h94.854
				c9.532,0,17.259,7.727,17.259,17.259c0,9.532-7.727,17.259-17.259,17.259H4.773c-3.63,0-6.994,1.126-9.773,3.04v28.44
				c2.779,1.914,6.143,3.04,9.773,3.04H34.79c9.532,0,17.26,7.727,17.26,17.259c0,9.532-7.727,17.259-17.26,17.259H-5v34.519h31.535
				c9.532,0,17.259,7.727,17.259,17.26c0,9.532-7.727,17.259-17.259,17.259H11.374c-7.632,0-14.096,4.96-16.374,11.828v10.864
				c2.278,6.868,8.742,11.828,16.374,11.828h15.161c9.532,0,17.259,7.727,17.259,17.259c0,9.532,7.727,17.259,17.26,17.259h28.8
				c9.532,0,17.259,7.727,17.259,17.259c0,9.532-7.727,17.26-17.259,17.26H69.308c-9.532,0-17.259,7.727-17.259,17.259
				c0,0.256-0.027,0.504-0.038,0.757h29.278c-0.005-0.177-0.027-0.35-0.027-0.528C81.262,992.856,88.989,985.108,98.521,985.108z"/>
			<path fill="#67F4E1" d="M52.049,795.07c0-9.532-7.727-17.259-17.26-17.259H4.773c-3.63,0-6.994-1.126-9.773-3.04v37.559h39.79
				C44.322,812.33,52.049,804.602,52.049,795.07z"/>
			<path fill="#67F4E1" d="M43.794,656.994c0-9.532-7.727-17.259-17.259-17.259H-5v34.519h31.535
				C36.067,674.254,43.794,666.526,43.794,656.994z"/>
			<path fill="#67F4E1" d="M89.854,743.292c9.532,0,17.259-7.727,17.259-17.259c0-9.532-7.727-17.259-17.259-17.259H-5v37.559
				c2.779-1.914,6.143-3.04,9.773-3.04H89.854z"/>
			<path fill="#67F4E1" d="M11.374,881.367h15.161c9.532,0,17.259-7.727,17.259-17.259c0-9.532-7.727-17.26-17.259-17.26H-5v46.347
				C-2.722,886.327,3.742,881.367,11.374,881.367z"/>
			<path fill="#67F4E1" d="M69.308,984.924h20.546c9.532,0,17.259-7.727,17.259-17.26c0-9.532-7.727-17.259-17.259-17.259h-28.8
				c-9.532,0-17.26-7.727-17.26-17.259c0-9.532-7.727-17.259-17.259-17.259H11.374c-7.632,0-14.096-4.96-16.374-11.828v98.882
				h57.011c0.011-0.253,0.038-0.502,0.038-0.757C52.049,992.652,59.776,984.924,69.308,984.924z"/>
			<path fill="#67F4E1" d="M508.283,656.994c0,9.532,7.727,17.259,17.259,17.259h28.8c9.532,0,17.26,7.727,17.26,17.259
				c0,9.532,7.727,17.26,17.259,17.26h15.161c9.532,0,17.259,7.727,17.259,17.259s-7.727,17.259-17.259,17.259h-15.161
				c-9.532,0-17.259,7.727-17.259,17.26c0,9.532,7.727,17.259,17.259,17.259h92.301c9.532,0,17.259,7.727,17.259,17.259
				c0,9.532-7.727,17.259-17.259,17.259H580.607c-9.532,0-17.259,7.727-17.259,17.26s-7.727,17.259-17.26,17.259h-20.546
				c-9.532,0-17.259,7.727-17.259,17.26c0,9.532,7.727,17.259,17.259,17.259h28.8c9.532,0,17.26,7.727,17.26,17.259
				c0,9.532,7.727,17.26,17.259,17.26h15.161c9.532,0,17.259,7.727,17.259,17.259c0,9.532-7.727,17.259-17.259,17.259h-15.161
				c-9.532,0-17.259,7.727-17.259,17.259c0,9.532,7.727,17.26,17.259,17.26h92.301c9.532,0,17.259,7.727,17.259,17.259
				c0,0.256-0.027,0.504-0.038,0.757H953.78V641.188h-85.316c-2.122-0.932-4.466-1.453-6.932-1.453H525.542
				C516.01,639.735,508.283,647.462,508.283,656.994z"/>
		</g>
		<g>
			<g>
				<g>
					<g>
						<g>
							<g>
								<path fill="#F2FEFA" d="M1251.724,600.192c22.72-51.544,43.706-106.816,62.563-165.961c0.995-3.116,5.98-3.029,6.857,0.121
									c12.15,43.822,24.719,85.825,37.647,126.115c0.841,2.633,5.715,2.863,7.068,0.33c14.093-26.342,27.616-53.643,40.508-81.905
									c1.165-2.55,5.413-2.795,6.802-0.39c15.63,27.113,31.718,53.412,48.23,78.92c1.478,2.287,6.12,1.857,7.159-0.669
									c21.212-51.46,40.452-106.125,57.325-164.025c1.021-3.497,6.563-3.7,7.36-0.265c11.486,49.872,22.787,97.519,33.891,143.088
									c0.705,2.914,6.34,2.809,7.695-0.146c9.78-21.33,19.185-43.185,28.189-65.562c1.2-2.981,6.362-3.453,7.578-0.689
									c9.901,22.574,19.89,44.634,29.961,66.196c1.184,2.541,6.41,2.106,7.783-0.653c16.487-33.109,32.04-67.466,46.538-103.055
									c0.59-1.448,2.9-1.262,3.187,0.261c2.199,11.662,4.533,23.684,6.934,35.882v163.123
									c-158.614,10.859-314.02,9.385-450.535-8.716C1252.25,621.898,1251.048,601.726,1251.724,600.192z"/>
							</g>
						</g>
					</g>
					<g>
						<g>
							<path fill="#9CECE7" d="M1306.487,568.344c0.003-0.054-0.003-0.107-0.033-0.157c-2.757-4.609-5.499-9.243-8.226-13.9
								c-0.174-0.297,0.292-0.563,0.619-0.353c2.545,1.641,5.098,3.278,7.657,4.906c0.245,0.156,0.616,0.046,0.653-0.192
								c2.991-19.228,5.844-38.868,8.552-58.929c0.055-0.411,0.801-0.367,0.788,0.047c-0.781,25.862-1.713,51.056-2.788,75.602
								c-0.01,0.235,0.335,0.391,0.609,0.273c4.505-1.936,9.003-3.895,13.494-5.874c0.371-0.164,0.784,0.164,0.542,0.43
								c-4.578,5.03-9.186,10.012-13.822,14.946c-0.045,0.049-0.07,0.106-0.07,0.164c-0.059,6.779,2.397,36.93,2.3,43.449
								c-0.002,0.151-15.472-1.389-15.689-1.388C1301.067,627.367,1305.324,593.197,1306.487,568.344z"/>
						</g>
						<g>
							<path fill="#9CECE7" d="M1684.439,534.841c0.006-0.058-0.009-0.116-0.044-0.163c-3.315-4.461-6.621-8.948-9.917-13.46
								c-0.21-0.288,0.309-0.658,0.689-0.491c2.964,1.303,5.937,2.6,8.918,3.888c0.285,0.124,0.704-0.063,0.737-0.325
								c2.633-21.231,4.956-42.873,6.952-64.928c0.041-0.451,0.895-0.544,0.905-0.097c0.523,27.933,0.599,55.207,0.254,81.837
								c-0.003,0.256,0.395,0.361,0.704,0.184c3.789-2.162,7.576-4.354,11.362-6.545v3.653c-3.581,4.385-7.173,8.754-10.79,13.087
								c-0.05,0.06-0.076,0.126-0.075,0.189c0.187-0.023,2.125,79.433,1.696,79.486c-4.734,0.662-18.539,1.627-23.238,2.266
								C1672.654,633.424,1684.796,534.797,1684.439,534.841z"/>
						</g>
						<g>
							<g>
								<g>
									<path fill="#9CECE7" d="M1526.544,582.684c-0.081-14.046-0.235-28.291-0.461-42.737c-0.001-0.061,0.021-0.125,0.062-0.18
										c3.884-5.247,7.74-10.532,11.569-15.858c0.244-0.34-0.259-0.657-0.668-0.419c-3.186,1.849-6.374,3.686-9.566,5.512
										c-0.305,0.174-0.718,0.041-0.725-0.235c-0.651-22.229-1.468-44.939-2.46-68.143c-0.021-0.475-0.882-0.426-0.912,0.052
										c-1.836,29.877-4.074,58.924-6.685,87.167c-0.025,0.271-0.445,0.44-0.74,0.297c-4.854-2.337-9.685-4.695-14.493-7.073
										c-0.397-0.198-0.915,0.169-0.681,0.479c4.441,5.873,8.911,11.701,13.41,17.485c0.044,0.056,0.063,0.124,0.054,0.19
										c-1.028,7.767-9.84,71.339-10.877,78.539c-0.025,0.165,20.563-0.18,25.26-0.039
										C1528.925,637.728,1526.569,582.883,1526.544,582.684z"/>
								</g>
							</g>
						</g>
						<g>
							<path fill="#9CECE7" d="M1404.831,562.4c0.003-0.034-0.014-0.069-0.049-0.095c-3.252-2.538-6.492-5.088-9.719-7.65
								c-0.205-0.163,0.244-0.389,0.597-0.299c2.751,0.701,5.507,1.395,8.268,2.084c0.264,0.066,0.632-0.05,0.647-0.205
								c1.2-12.368,2.341-24.897,3.421-37.588c0.022-0.26,0.79-0.331,0.812-0.077c1.393,16.021,2.747,31.792,4.062,47.317
								c0.013,0.149,0.378,0.203,0.646,0.093c4.393-1.803,8.784-3.627,13.171-5.468c0.363-0.152,0.815-0.001,0.594,0.199
								c-4.184,3.777-8.385,7.524-12.603,11.24c-0.041,0.036-0.06,0.076-0.055,0.113c0.645,4.302,7.027,64.058,6.782,64.084
								c-4.159,0.478-12.491-1.263-16.644-0.806C1404.535,635.369,1404.185,570.519,1404.831,562.4z"/>
						</g>
						<g>
							<path fill="#9CECE7" d="M1595.182,592.963c1.298-8.157,2.556-16.382,3.775-24.675c0.005-0.036-0.011-0.068-0.047-0.094
								c-3.342-2.462-6.671-4.938-9.987-7.426c-0.21-0.159,0.286-0.405,0.66-0.327c2.917,0.609,5.84,1.215,8.771,1.812
								c0.281,0.058,0.684-0.075,0.709-0.232c2.048-12.641,4.001-25.444,5.857-38.406c0.037-0.266,0.87-0.368,0.88-0.11
								c0.633,16.256,1.163,32.268,1.593,48.037c0.005,0.152,0.396,0.192,0.69,0.071c4.848-2.001,9.697-4.024,14.546-6.066
								c0.401-0.169,0.879-0.031,0.628,0.18c-4.755,4.008-9.523,7.983-14.307,11.927c-0.047,0.039-0.07,0.078-0.067,0.117
								c0.42,4.36,5.528,57.986,5.258,58.02c-4.532,0.638-21.706,0.255-26.207,0.876
								C1587.708,636.697,1595.184,592.976,1595.182,592.963z"/>
						</g>
					</g>
				</g>
			</g>
			<path fill="#118C80" d="M1525.078,586.411"/>
		</g>
		<path fill="#367272" d="M474.413,732.438c0,0,87.329,30.129,116.331,128.224c3.969,13.424,16.279,22.651,30.277,22.651h0
			c18.433,0,35.384,10.097,44.163,26.304l10.731,19.812c8.779,16.208,25.731,26.304,44.163,26.304h153.74
			c12.858,0,25.227,4.932,34.558,13.779l23.317,22.109c7.666,7.269,17.828,11.321,28.393,11.321H1705l-88.465-235.802
			l-775.497-99.577L474.413,732.438z"/>
		<path opacity="0.1" fill="#00007C" d="M897.276,858.094c50.294-9.053,131.771-27.159,129.759-90.529
			c-1.006-7.041-6.035-13.076-13.076-13.076c-38.224-3.018-75.441-5.029-113.665,5.029c-10.059,3.018-21.124,0-32.188,1.006
			c-26.153,2.012-52.306,1.006-78.459,6.035C752.429,773.6,717.224,776.618,679,784.665c-24.141,4.024-49.288,3.018-71.418,16.094
			c-1.006,1.006-1.006,5.029,0,8.047c4.023,7.041,11.065,11.065,16.094,17.1c17.1,25.147,24.141,49.288,38.224,75.441
			c1.871,3.453,3.381,7.034,4.605,10.708l9.411,17.374c8.779,16.208,25.731,26.304,44.163,26.304h153.74
			c10.839,0,21.323,3.516,29.94,9.917c-1.298-7.982-4.097-15.788-5.477-24.067C894.259,913.418,898.282,886.259,897.276,858.094z"/>
		<path opacity="0.1" fill="#00007C" d="M1467.612,902.353c-33.194-6.035-65.382-4.023-98.577-1.006
			c-15.088,1.006-29.171,1.006-45.265,5.029c-12.071,2.012-28.165,7.041-29.171,16.094c-4.677,26.725-8.014,53.451-10.028,80.471
			H1705l-10.808-28.81c-29.743-1.117-59.243-3.348-86.762-17.461C1562.165,933.535,1517.906,911.406,1467.612,902.353z"/>
		<path fill="#F2FEFA" d="M1705,602.418c0,0-290.864-16.549-671.087,6.145c-325.665,19.438-587.272,110.963-578.331,131.209
			c12.32,27.899,252.589-17.426,286.789-11.414c34.2,6.012-128.753,50.19-134.788,72.36c-6.035,22.17,387.398-17.723,375.764,8.259
			c-11.634,25.982-124.293,45.634-76.011,61.256c114.239,36.964,354.071-8.984,428.506,0s-58.341,35.878-42.247,55.625
			c16.094,19.747,411.406,77.082,411.406,77.082V602.418z"/>
		<path fill="#D4F8F6" d="M1705,602.418c0,0-183.123-10.418-448.701-3.385c53.109,9.091,105.349,12.752,160.013,23.685
			c45.265,8.047,84.494,25.147,113.665,60.353c15.088,17.1,32.188,35.206,31.182,59.347c0,1.006,3.018,2.012,4.024,4.024
			c12.071,57.335-26.153,99.582-64.376,134.788c-24.141,24.141-57.335,32.188-86.506,51.3c-3.018,2.012-7.041,0-10.059,1.006
			c-19.429,5.757-39.245,7.901-59.217,8.476c110.718,24.777,359.976,60.93,359.976,60.93V602.418z"/>
		<g>
			<pattern  id="SVGID_1_" xlink:href="#Unnamed_Pattern_8" patternTransform="matrix(1.5877 0 0 1.5264 6521.1523 1249.2838)">
			</pattern>
			<rect x="-5" y="-2.941" fill="url(#SVGID_1_)" width="1710" height="1005.882"/>
		</g>
	</g>
</g>
<g id="Vexels">
	<g>
		<g>
			<path fill="#FFFFFF" d="M2527.897,335.484h-644.659c-10.94,0-19.81,8.87-19.81,19.81v268.082l-62.03,19.923l62.03,18.008v186.82
				c0,10.939,8.87,19.81,19.81,19.81h644.659c10.94,0,19.811-8.87,19.811-19.81V355.294
				C2547.708,344.354,2538.838,335.484,2527.897,335.484z"/>
			<rect x="1927.998" y="402.472" fill="none" width="583.032" height="407.034"/>
			<text transform="matrix(1 0 0 1 1927.998 419.5122)"><tspan x="0" y="0" fill="#333333" font-family="'MyriadPro-Regular'" font-size="24px">This design was made by vexels.com. Its under CC 3.0 </tspan><tspan x="0" y="28.8" fill="#333333" font-family="'MyriadPro-Regular'" font-size="24px">Attribution License. This means that for free use you must </tspan><tspan x="0" y="57.6" fill="#333333" font-family="'MyriadPro-Regular'" font-size="24px">give credit and cant do merchandise items. You can only </tspan><tspan x="0" y="86.4" fill="#333333" font-family="'MyriadPro-Regular'" font-size="24px">do commercial and merchandise items without credit if </tspan><tspan x="0" y="115.2" fill="#333333" font-family="'MyriadPro-Regular'" font-size="24px">you get a license. Learn more on </tspan><tspan x="327.785" y="115.2" fill="#C64B09" font-family="'MyriadPro-Regular'" font-size="24px">www.vexels.com/plans</tspan><tspan x="0" y="172.8" fill="#333333" font-family="'MyriadPro-Regular'" font-size="24px">You cant sublicense, redistribute or resell an image or </tspan><tspan x="0" y="201.6" fill="#333333" font-family="'MyriadPro-Regular'" font-size="24px">part of it. You can only use our contents for products </tspan><tspan x="0" y="230.4" fill="#333333" font-family="'MyriadPro-Regular'" font-size="24px">where the design is the main reason its being purchased </tspan><tspan x="0" y="259.2" fill="#333333" font-family="'MyriadPro-Regular'" font-size="24px">if you get a license. Learn more on </tspan><tspan x="0" y="288" fill="#C64B09" font-family="'MyriadPro-Regular'" font-size="24px">www.vexels.com/terms-and-conditions</tspan><tspan x="0" y="345.6" fill="#333333" font-family="'MyriadPro-Regular'" font-size="24px">Thanks!</tspan><tspan x="0" y="374.4" fill="#333333" font-family="'MyriadPro-Regular'" font-size="24px">Vexels Team</tspan></text>
		</g>
	</g>
	<g>
		<g>
			<g>
				<path fill="#367272" d="M224.773,940.763l-0.91-1.97c-0.447-0.947-1.638-1.388-2.638-0.981c-1.083,0.37-1.566,1.489-1.12,2.403
					l1.023,2.217l8.09,17.553c0.076,0.07,0.15,0.203,0.184,0.271c0,0.033,0.042,0.033,0.042,0.033
					c0.037,0.067,0.111,0.135,0.186,0.205c0,0.067,0.035,0.067,0.035,0.099c0.11,0.07,0.186,0.103,0.259,0.171
					c0.036,0,0.036,0,0.036,0c0.113,0.067,0.262,0.169,0.337,0.202c0.037,0,0.037,0,0.037,0s0.038,0,0.038,0.037
					c0.073,0,0.223,0.033,0.298,0.064c0.032,0,0.073,0,0.073,0c0.111,0.035,0.261,0.035,0.375,0.035c0.11,0,0.223,0,0.371-0.035
					c0.034,0,0.071,0,0.071,0c0.112-0.031,0.185-0.064,0.3-0.064c0.038-0.037,0.038-0.037,0.073-0.037
					c0.113-0.033,0.226-0.134,0.299-0.171c0.073-0.031,0.073-0.031,0.073-0.031c0.075-0.068,0.148-0.101,0.221-0.171
					c0.04-0.032,0.04-0.032,0.076-0.099c0.038-0.07,0.148-0.138,0.184-0.205c0.036,0,0.036,0,0.036-0.033
					c0.077-0.068,0.117-0.202,0.154-0.271l0.346-0.745l-2.205-4.774L224.773,940.763z M303.679,940.623
					c0.631-0.848,0.485-1.998-0.444-2.575c-0.931-0.643-2.159-0.473-2.863,0.407l-4.24,5.288l2.525,3.088L303.679,940.623z
					 M241.047,937.813c-1.002-0.408-2.229,0.033-2.676,0.981l-5.389,11.642l2.212,4.779l6.971-14.999
					C242.573,939.302,242.091,938.183,241.047,937.813z M193.035,930.656c-0.875-0.875-2.039-1.355-3.275-1.355
					c-1.236,0-2.397,0.48-3.273,1.355l-14.985,14.988c-1.803,1.808-1.803,4.74,0,6.542l14.985,14.991
					c0.875,0.873,2.037,1.352,3.273,1.352c1.236,0,2.399-0.479,3.275-1.35l14.985-14.992c0.875-0.877,1.357-2.034,1.357-3.273
					c0-1.232-0.482-2.394-1.357-3.27L193.035,930.656z M205.694,950.261l-14.588,14.586c-0.721,0.721-1.97,0.721-2.685,0
					l-14.59-14.586c-0.741-0.742-0.741-1.947-0.003-2.69l14.594-14.589c0.012-0.012,0.024-0.024,0.038-0.032v12.089
					c-0.594,0.202-1.142,0.519-1.598,0.977c-0.776,0.776-1.2,1.802-1.2,2.898s0.424,2.13,1.2,2.899
					c0.773,0.78,1.805,1.204,2.898,1.204c1.098,0,2.128-0.423,2.904-1.204c1.597-1.595,1.597-4.199,0-5.802
					c-0.456-0.456-1.004-0.771-1.6-0.972V932.95c0.013,0.008,0.028,0.021,0.042,0.032l14.588,14.589
					c0.36,0.358,0.553,0.837,0.553,1.343C206.247,949.422,206.054,949.895,205.694,950.261z M296.616,949.354l-2.496-3.114
					l-6.282-7.785c-0.637-0.88-1.937-1.05-2.831-0.407c-0.929,0.577-1.115,1.727-0.484,2.575l7.068,8.731l-7.068,8.805
					c-0.631,0.81-0.445,1.997,0.484,2.572c0.336,0.237,0.747,0.372,1.19,0.372c0.634,0,1.227-0.306,1.641-0.779l6.282-7.82
					l6.711,8.397c0.388,0.482,1.001,0.732,1.57,0.732c0.426,0,0.922-0.196,1.279-0.48c0.844-0.672,0.908-1.886,0.235-2.727
					L296.616,949.354z M263.721,937.446c-6.015,0-10.912,5.319-10.912,11.854c0,6.484,4.896,11.764,10.912,11.764
					c3.694,0,7.1-2.016,9.105-5.396c0.484-0.874,0.241-1.959-0.612-2.607c-0.275-0.177-0.599-0.272-0.929-0.272
					c-0.644,0-1.216,0.345-1.526,0.909c-1.26,2.222-3.574,3.598-6.038,3.598c-3.648,0-6.674-2.903-7.218-6.833h16.232
					c1.016,0,1.808-0.788,1.808-1.796l-0.002-0.238C274.081,942.168,269.428,937.446,263.721,937.446z M256.768,946.742
					c0.987-3.33,3.716-5.529,6.953-5.529c3.172,0,5.915,2.248,6.838,5.529H256.768z M356.716,957.238c-0.038,0-2.796,0-2.837,0
					c-1.051,0-2.274-0.607-2.274-2.305v-18.852c0-1.109-0.904-2.008-2.018-2.008c-1.07,0-2.01,0.94-2.01,2.008v18.852
					c0,3.727,2.475,6.135,6.302,6.135c0.05,0,2.814,0,2.862-0.003c0.993-0.071,1.776-0.903,1.776-1.913
					C358.516,958.138,357.72,957.297,356.716,957.238z M387.496,951.016c-0.855-1.256-2.196-2.135-3.721-2.81
					c-1.487-0.644-3.235-1.085-5.132-1.422h-0.076c-2.005-0.34-3.679-0.884-4.646-1.493c-0.484-0.301-0.822-0.605-1.008-0.879
					c-0.184-0.268-0.259-0.543-0.259-0.945c0-0.713,0.407-1.456,1.417-2.133c1.002-0.678,2.491-1.153,4.162-1.153
					c2.269,0,4.09,1.015,5.99,2.167c0.893,0.539,2.083,0.303,2.64-0.508c0.595-0.779,0.335-1.864-0.518-2.403
					c-1.898-1.117-4.543-2.711-8.112-2.711c-2.419,0-4.683,0.644-6.433,1.795c-1.712,1.157-2.978,2.912-2.978,4.946
					c0,1.013,0.297,1.962,0.859,2.772c0.816,1.187,2.045,2.035,3.453,2.641c1.417,0.61,3.056,1.017,4.799,1.321h0.079
					c2.192,0.372,4.017,0.946,5.096,1.59c0.555,0.341,0.889,0.677,1.115,1.017c0.223,0.34,0.333,0.64,0.333,1.081
					c0,0.847-0.481,1.694-1.601,2.439c-1.114,0.743-2.788,1.253-4.646,1.253c-2.643,0.032-5.469-1.39-7.105-2.607
					c-0.821-0.613-2.046-0.51-2.717,0.232c-0.633,0.747-0.522,1.865,0.297,2.474c2.123,1.526,5.504,3.355,9.524,3.386
					c2.639,0,5.057-0.71,6.881-1.926c1.859-1.223,3.196-3.082,3.196-5.251C388.387,952.839,388.055,951.827,387.496,951.016z
					 M325.834,937.446c-6.015,0-10.91,5.319-10.91,11.854c0,6.484,4.895,11.764,10.91,11.764c3.699,0,7.097-2.016,9.109-5.396
					c0.482-0.874,0.239-1.959-0.61-2.607c-0.278-0.177-0.6-0.272-0.933-0.272c-0.642,0-1.213,0.345-1.525,0.909
					c-1.259,2.222-3.573,3.598-6.041,3.598c-3.649,0-6.674-2.903-7.216-6.833h16.235c1.012,0,1.807-0.788,1.807-1.796v-0.238
					C336.198,942.168,331.544,937.446,325.834,937.446z M318.883,946.742c0.985-3.33,3.716-5.529,6.951-5.529
					c3.179,0,5.916,2.248,6.84,5.529H318.883z"/>
			</g>
			<g>
				<path fill="#367272" d="M60.076,950.487c0,0.705,0.007,1.342,0.018,1.916c0.014,0.569,0.077,1.133,0.187,1.686h-1.117
					l-0.413-1.468h-0.084c-0.275,0.482-0.674,0.882-1.2,1.199c-0.524,0.316-1.136,0.475-1.841,0.475
					c-1.378,0-2.403-0.432-3.073-1.304c-0.669-0.868-1.002-2.226-1.002-4.077c0-1.764,0.418-3.104,1.253-4.021
					c0.833-0.917,1.982-1.375,3.443-1.375c0.51,0,0.913,0.026,1.211,0.08c0.296,0.056,0.616,0.145,0.961,0.27v-4.303h1.657V950.487z
					 M55.896,952.848c0.703,0,1.261-0.185,1.677-0.551c0.411-0.365,0.694-0.92,0.846-1.665v-5.131
					c-0.249-0.192-0.529-0.331-0.846-0.414c-0.32-0.082-0.739-0.124-1.263-0.124c-0.952,0-1.696,0.315-2.234,0.943
					c-0.537,0.626-0.807,1.629-0.807,3.006c0,0.567,0.046,1.091,0.135,1.573c0.087,0.486,0.237,0.898,0.444,1.242
					c0.207,0.346,0.478,0.618,0.818,0.818C55.004,952.747,55.414,952.848,55.896,952.848z"/>
				<path fill="#367272" d="M70.813,953.219c-0.416,0.332-0.934,0.593-1.562,0.786c-0.629,0.193-1.293,0.289-1.996,0.289
					c-0.786,0-1.47-0.127-2.05-0.383c-0.577-0.254-1.055-0.62-1.427-1.096c-0.372-0.477-0.649-1.046-0.826-1.707
					c-0.181-0.661-0.272-1.403-0.272-2.232c0-1.766,0.395-3.113,1.182-4.037c0.785-0.922,1.908-1.387,3.372-1.387
					c0.468,0,0.936,0.054,1.406,0.159c0.47,0.101,0.889,0.299,1.261,0.59c0.373,0.289,0.677,0.7,0.912,1.229
					c0.233,0.532,0.351,1.232,0.351,2.099c0,0.456-0.041,0.961-0.125,1.511H64.4c0,0.607,0.061,1.145,0.186,1.615
					c0.124,0.469,0.316,0.865,0.58,1.188c0.262,0.326,0.602,0.575,1.023,0.747c0.421,0.173,0.934,0.26,1.541,0.26
					c0.468,0,0.937-0.086,1.408-0.251c0.468-0.164,0.82-0.359,1.055-0.578L70.813,953.219z M67.255,944.903
					c-0.814,0-1.467,0.212-1.956,0.64c-0.491,0.428-0.783,1.159-0.879,2.194h5.13c0-1.05-0.2-1.784-0.6-2.205
					C68.549,945.112,67.986,944.903,67.255,944.903z"/>
				<path fill="#367272" d="M78.322,951.233c0-0.416-0.124-0.739-0.37-0.972c-0.251-0.235-0.557-0.43-0.923-0.59
					c-0.365-0.159-0.766-0.312-1.198-0.456c-0.435-0.143-0.836-0.331-1.201-0.557c-0.365-0.228-0.672-0.521-0.92-0.879
					c-0.247-0.36-0.373-0.844-0.373-1.451c0-0.992,0.282-1.717,0.848-2.181c0.565-0.463,1.352-0.696,2.359-0.696
					c0.744,0,1.369,0.068,1.872,0.2c0.503,0.13,0.941,0.286,1.314,0.467l-0.394,1.362c-0.318-0.149-0.701-0.285-1.148-0.4
					c-0.449-0.118-0.928-0.177-1.439-0.177c-0.607,0-1.051,0.102-1.333,0.31c-0.284,0.208-0.424,0.566-0.424,1.076
					c0,0.358,0.123,0.639,0.374,0.838c0.247,0.2,0.553,0.38,0.919,0.538c0.365,0.159,0.766,0.313,1.201,0.466
					c0.433,0.152,0.834,0.352,1.199,0.6c0.365,0.247,0.673,0.56,0.92,0.94c0.249,0.38,0.372,0.877,0.372,1.498
					c0,0.443-0.071,0.858-0.215,1.242c-0.146,0.388-0.369,0.718-0.673,0.993c-0.305,0.276-0.678,0.494-1.128,0.651
					c-0.449,0.158-0.974,0.238-1.581,0.238c-0.787,0-1.457-0.077-2.006-0.227c-0.553-0.153-1.015-0.331-1.387-0.537l0.496-1.408
					c0.318,0.179,0.731,0.345,1.242,0.497c0.51,0.151,1.026,0.228,1.55,0.228c0.593,0,1.084-0.119,1.468-0.354
					C78.128,952.26,78.322,951.84,78.322,951.233z"/>
				<path fill="#367272" d="M82.481,940.558c0-0.317,0.105-0.59,0.32-0.82c0.214-0.228,0.487-0.34,0.818-0.34
					c0.33,0,0.612,0.113,0.847,0.34c0.235,0.23,0.351,0.503,0.351,0.82c0,0.315-0.116,0.58-0.351,0.785
					c-0.235,0.208-0.516,0.311-0.847,0.311c-0.331,0-0.604-0.103-0.818-0.311C82.586,941.138,82.481,940.873,82.481,940.558z
					 M82.832,943.702h1.654v10.343h-1.654V943.702z"/>
				<path fill="#367272" d="M95.947,954.522c0,1.338-0.356,2.325-1.066,2.96c-0.71,0.634-1.761,0.95-3.154,0.95
					c-0.827,0-1.493-0.051-1.996-0.154c-0.502-0.103-0.934-0.238-1.295-0.405l0.437-1.407c0.317,0.126,0.668,0.243,1.055,0.353
					c0.386,0.111,0.889,0.165,1.511,0.165c0.579,0,1.051-0.052,1.416-0.155c0.365-0.102,0.659-0.277,0.879-0.518
					c0.221-0.24,0.373-0.551,0.456-0.931c0.082-0.38,0.124-0.831,0.124-1.355v-0.992H94.23c-0.277,0.4-0.628,0.707-1.054,0.92
					c-0.429,0.214-0.987,0.322-1.678,0.322c-1.392,0-2.417-0.435-3.071-1.305c-0.656-0.868-0.983-2.22-0.983-4.056
					c0-1.764,0.421-3.104,1.261-4.021c0.842-0.917,2.083-1.375,3.724-1.375c0.786,0,1.46,0.061,2.018,0.184
					c0.559,0.124,1.058,0.27,1.5,0.433V954.522z M91.789,952.825c0.703,0,1.255-0.175,1.654-0.527c0.4-0.351,0.684-0.899,0.85-1.644
					v-5.297c-0.553-0.263-1.256-0.394-2.111-0.394c-0.938,0-1.675,0.319-2.213,0.952c-0.537,0.634-0.807,1.629-0.807,2.979
					c0,0.58,0.049,1.11,0.145,1.592c0.097,0.486,0.249,0.898,0.456,1.242c0.207,0.346,0.475,0.615,0.807,0.807
					C90.9,952.73,91.305,952.825,91.789,952.825z"/>
				<path fill="#367272" d="M105.774,954.045v-5.893c0-1.077-0.155-1.888-0.466-2.431c-0.31-0.547-0.879-0.818-1.706-0.818
					c-0.732,0-1.336,0.197-1.811,0.589c-0.475,0.391-0.811,0.886-1.004,1.479v7.073h-1.654v-10.343h1.159l0.31,1.261h0.084
					c0.332-0.442,0.776-0.805,1.335-1.087c0.558-0.281,1.225-0.425,1.996-0.425c0.567,0,1.063,0.068,1.489,0.2
					c0.429,0.13,0.783,0.36,1.067,0.691c0.281,0.331,0.496,0.776,0.64,1.334c0.146,0.559,0.218,1.266,0.218,2.121v6.247H105.774z"/>
				<path fill="#367272" d="M117.999,953.219c-0.413,0.332-0.933,0.593-1.56,0.786c-0.629,0.193-1.293,0.289-1.996,0.289
					c-0.786,0-1.47-0.127-2.048-0.383c-0.579-0.254-1.056-0.62-1.428-1.096c-0.372-0.477-0.649-1.046-0.826-1.707
					c-0.179-0.661-0.27-1.403-0.27-2.232c0-1.766,0.394-3.113,1.18-4.037c0.785-0.922,1.91-1.387,3.372-1.387
					c0.47,0,0.939,0.054,1.408,0.159c0.467,0.101,0.888,0.299,1.261,0.59c0.371,0.289,0.673,0.7,0.909,1.229
					c0.235,0.532,0.353,1.232,0.353,2.099c0,0.456-0.042,0.961-0.123,1.511h-6.642c0,0.607,0.063,1.145,0.186,1.615
					c0.124,0.469,0.317,0.865,0.58,1.188c0.262,0.326,0.602,0.575,1.023,0.747c0.421,0.173,0.934,0.26,1.541,0.26
					c0.47,0,0.938-0.086,1.408-0.251c0.468-0.164,0.819-0.359,1.054-0.578L117.999,953.219z M114.442,944.903
					c-0.814,0-1.465,0.212-1.955,0.64c-0.489,0.428-0.783,1.159-0.88,2.194h5.132c0-1.05-0.202-1.784-0.6-2.205
					C115.737,945.112,115.171,944.903,114.442,944.903z"/>
				<path fill="#367272" d="M128.904,950.487c0,0.705,0.005,1.342,0.019,1.916c0.016,0.569,0.076,1.133,0.186,1.686h-1.117
					l-0.413-1.468h-0.083c-0.277,0.482-0.677,0.882-1.199,1.199c-0.526,0.316-1.139,0.475-1.843,0.475
					c-1.378,0-2.402-0.432-3.073-1.304c-0.668-0.868-1.004-2.226-1.004-4.077c0-1.764,0.418-3.104,1.253-4.021
					c0.833-0.917,1.982-1.375,3.445-1.375c0.51,0,0.913,0.026,1.209,0.08c0.298,0.056,0.618,0.145,0.963,0.27v-4.303h1.657V950.487z
					 M124.724,952.848c0.703,0,1.261-0.185,1.676-0.551c0.412-0.365,0.696-0.92,0.847-1.665v-5.131
					c-0.247-0.192-0.531-0.331-0.847-0.414c-0.316-0.082-0.738-0.124-1.263-0.124c-0.952,0-1.695,0.315-2.232,0.943
					c-0.538,0.626-0.808,1.629-0.808,3.006c0,0.567,0.044,1.091,0.135,1.573c0.089,0.486,0.238,0.898,0.443,1.242
					c0.208,0.346,0.48,0.618,0.82,0.818C123.831,952.747,124.241,952.848,124.724,952.848z"/>
				<path fill="#367272" d="M137.612,939.565h1.655v5.152h0.084c0.316-0.4,0.72-0.71,1.209-0.931
					c0.488-0.221,1.025-0.335,1.602-0.335c1.34,0,2.34,0.43,3.012,1.285c0.669,0.855,1.002,2.18,1.002,3.972
					c0,1.808-0.442,3.181-1.325,4.117c-0.882,0.938-2.124,1.406-3.723,1.406c-0.773,0-1.473-0.081-2.099-0.247
					c-0.628-0.165-1.101-0.345-1.418-0.538V939.565z M141.874,944.903c-0.691,0-1.25,0.191-1.676,0.577
					c-0.429,0.387-0.737,0.933-0.931,1.634v5.213c0.261,0.153,0.581,0.268,0.952,0.345c0.372,0.075,0.758,0.113,1.159,0.113
					c0.937,0,1.687-0.334,2.245-0.995c0.557-0.662,0.835-1.695,0.835-3.101c0-0.537-0.047-1.042-0.143-1.512
					c-0.097-0.469-0.248-0.868-0.456-1.2c-0.207-0.331-0.472-0.594-0.795-0.783C142.739,945,142.342,944.903,141.874,944.903z"/>
				<path fill="#367272" d="M151.586,950.405l0.581,1.985h0.104l0.457-2.004l2.015-6.684h1.654l-3.062,9.288
					c-0.235,0.675-0.465,1.331-0.693,1.967c-0.228,0.634-0.481,1.199-0.755,1.697c-0.277,0.497-0.589,0.893-0.931,1.19
					c-0.346,0.296-0.745,0.443-1.201,0.443c-0.496,0-0.903-0.07-1.22-0.205l0.289-1.428c0.179,0.07,0.351,0.102,0.518,0.102
					c0.387,0,0.757-0.203,1.117-0.609c0.357-0.407,0.654-1.106,0.889-2.102l-4.159-10.343h1.903L151.586,950.405z"/>
			</g>
		</g>
	</g>
</g>
</svg>
